%
M48
M72
T01C0.0120
T02C0.0400
T03C0.1300
%
T01
X4375Y4125
X5375Y6375
X6875Y6875
X6375Y7875
X6375Y8375
X6875Y8625
X6875Y9875
X6540Y9840
X5475Y8275
X4225Y7875
X7375Y4375
X9875Y6875
X10075Y8625
X10375Y9375
X9210Y9990
X4375Y14325
X5375Y16575
X6875Y17075
X6375Y18075
X6375Y18575
X6875Y18825
X5475Y18475
X4225Y18075
X6540Y20040
X6875Y20075
X9210Y20190
X10375Y19575
X10075Y18825
X9875Y17075
X7375Y14575
X14425Y18075
X15675Y18475
X16575Y18575
X16575Y18075
X17075Y18825
X17075Y20075
X16740Y20040
X19410Y20190
X20575Y19575
X20275Y18825
X20075Y17075
X17575Y14575
X15575Y16575
X17075Y17075
X14575Y14325
X16740Y9840
X17075Y9875
X17075Y8625
X16575Y8375
X16575Y7875
X15675Y8275
X14425Y7875
X15575Y6375
X17075Y6875
X17575Y4375
X14575Y4125
X20075Y6875
X20275Y8625
X20575Y9375
X19410Y9990
X24625Y7875
X25875Y8275
X26775Y8375
X26775Y7875
X27275Y8625
X27275Y9875
X26940Y9840
X29610Y9990
X30775Y9375
X30475Y8625
X30275Y6875
X27275Y6875
X25775Y6375
X24775Y4125
X27775Y4375
X24775Y14325
X25775Y16575
X27275Y17075
X26775Y18075
X26775Y18575
X27275Y18825
X25875Y18475
X24625Y18075
X26940Y20040
X27275Y20075
X29610Y20190
X30775Y19575
X30475Y18825
X30275Y17075
X27775Y14575
X27775Y24775
X25775Y26775
X27275Y27275
X26775Y28275
X26775Y28775
X27275Y29025
X27275Y30275
X26940Y30240
X25875Y28675
X24625Y28275
X24775Y24525
X20075Y27275
X20275Y29025
X20575Y29775
X19410Y30390
X17075Y30275
X16740Y30240
X17075Y29025
X16575Y28775
X16575Y28275
X15675Y28675
X14425Y28275
X15575Y26775
X17075Y27275
X17575Y24775
X14575Y24525
X9875Y27275
X10075Y29025
X10375Y29775
X9210Y30390
X6875Y30275
X6540Y30240
X6875Y29025
X6375Y28775
X6375Y28275
X5475Y28675
X4225Y28275
X5375Y26775
X6875Y27275
X7375Y24775
X4375Y24525
X29610Y30390
X30775Y29775
X30475Y29025
X30275Y27275
T02
X30275Y23775
X29275Y23775
X28275Y23775
X27275Y23775
X26275Y23775
X20075Y23775
X19075Y23775
X18075Y23775
X17075Y23775
X16075Y23775
X9875Y23775
X8875Y23775
X7875Y23775
X6875Y23775
X5875Y23775
X5875Y13575
X6875Y13575
X7875Y13575
X8875Y13575
X9875Y13575
X16075Y13575
X17075Y13575
X18075Y13575
X19075Y13575
X20075Y13575
X26275Y13575
X27275Y13575
X28275Y13575
X29275Y13575
X30275Y13575
X30275Y3375
X29275Y3375
X28275Y3375
X27275Y3375
X26275Y3375
X20075Y3375
X19075Y3375
X18075Y3375
X17075Y3375
X16075Y3375
X9875Y3375
X8875Y3375
X7875Y3375
X6875Y3375
X5875Y3375
T03
X3875Y11875
X11875Y11875
X14075Y11875
X22075Y11875
X24275Y11875
X32275Y11875
X32275Y22075
X24275Y22075
X22075Y22075
X14075Y22075
X11875Y22075
X3875Y22075
X3875Y32275
X11875Y32275
X14075Y32275
X22075Y32275
X24275Y32275
X32275Y32275
M30
