G75*
%MOIN*%
%OFA0B0*%
%FSLAX25Y25*%
%IPPOS*%
%LPD*%
%AMOC8*
5,1,8,0,0,1.08239X$1,22.5*
%
%ADD10C,0.00800*%
%ADD11C,0.01500*%
%ADD12C,0.01100*%
%ADD13C,0.01000*%
%ADD14C,0.00000*%
D10*
X0028750Y0028750D02*
X0128750Y0028750D01*
X0128750Y0128750D01*
X0028750Y0128750D01*
X0028750Y0028750D01*
X0130750Y0028750D02*
X0230750Y0028750D01*
X0230750Y0128750D01*
X0130750Y0128750D01*
X0130750Y0028750D01*
X0232750Y0028750D02*
X0332750Y0028750D01*
X0332750Y0128750D01*
X0232750Y0128750D01*
X0232750Y0028750D01*
X0232750Y0130750D02*
X0332750Y0130750D01*
X0332750Y0230750D01*
X0232750Y0230750D01*
X0232750Y0130750D01*
X0230750Y0130750D02*
X0130750Y0130750D01*
X0130750Y0230750D01*
X0230750Y0230750D01*
X0230750Y0130750D01*
X0128750Y0130750D02*
X0028750Y0130750D01*
X0028750Y0230750D01*
X0128750Y0230750D01*
X0128750Y0130750D01*
X0128750Y0232750D02*
X0028750Y0232750D01*
X0028750Y0332750D01*
X0128750Y0332750D01*
X0128750Y0232750D01*
X0130750Y0232750D02*
X0230750Y0232750D01*
X0230750Y0332750D01*
X0130750Y0332750D01*
X0130750Y0232750D01*
X0232750Y0232750D02*
X0332750Y0232750D01*
X0332750Y0332750D01*
X0232750Y0332750D01*
X0232750Y0232750D01*
D11*
X0384750Y0231750D02*
X0001750Y0231750D01*
X0001750Y0129750D02*
X0384750Y0129750D01*
X0384750Y0027750D02*
X0001750Y0027750D01*
X0027750Y0001750D02*
X0027750Y0384750D01*
X0001750Y0333750D02*
X0384750Y0333750D01*
X0333750Y0384750D02*
X0333750Y0001750D01*
X0231750Y0001750D02*
X0231750Y0384750D01*
X0129750Y0384750D02*
X0129750Y0001750D01*
D12*
X0393278Y0028737D02*
X0395246Y0024800D01*
X0397215Y0028737D01*
X0399723Y0027753D02*
X0403660Y0027753D01*
X0406169Y0027753D02*
X0407153Y0028737D01*
X0410106Y0028737D01*
X0409121Y0026768D02*
X0407153Y0026768D01*
X0406169Y0027753D01*
X0406169Y0024800D02*
X0409121Y0024800D01*
X0410106Y0025784D01*
X0409121Y0026768D01*
X0412614Y0025784D02*
X0413599Y0024800D01*
X0416551Y0024800D01*
X0419060Y0025784D02*
X0420044Y0024800D01*
X0422012Y0024800D01*
X0422997Y0025784D01*
X0422997Y0027753D01*
X0422012Y0028737D01*
X0420044Y0028737D01*
X0419060Y0027753D01*
X0419060Y0025784D01*
X0416551Y0028737D02*
X0413599Y0028737D01*
X0412614Y0027753D01*
X0412614Y0025784D01*
X0425505Y0024800D02*
X0425505Y0028737D01*
X0425505Y0026768D02*
X0427474Y0028737D01*
X0428458Y0028737D01*
X0430877Y0027753D02*
X0431861Y0028737D01*
X0433829Y0028737D01*
X0434813Y0027753D01*
X0434813Y0026768D01*
X0430877Y0026768D01*
X0430877Y0025784D02*
X0430877Y0027753D01*
X0430877Y0025784D02*
X0431861Y0024800D01*
X0433829Y0024800D01*
X0433829Y0126800D02*
X0431861Y0126800D01*
X0430877Y0127784D01*
X0430877Y0129753D01*
X0431861Y0130737D01*
X0433829Y0130737D01*
X0434813Y0129753D01*
X0434813Y0128768D01*
X0430877Y0128768D01*
X0428458Y0130737D02*
X0427474Y0130737D01*
X0425505Y0128768D01*
X0425505Y0126800D02*
X0425505Y0130737D01*
X0422997Y0129753D02*
X0422012Y0130737D01*
X0420044Y0130737D01*
X0419060Y0129753D01*
X0419060Y0127784D01*
X0420044Y0126800D01*
X0422012Y0126800D01*
X0422997Y0127784D01*
X0422997Y0129753D01*
X0416551Y0130737D02*
X0413599Y0130737D01*
X0412614Y0129753D01*
X0412614Y0127784D01*
X0413599Y0126800D01*
X0416551Y0126800D01*
X0410106Y0127784D02*
X0409121Y0128768D01*
X0407153Y0128768D01*
X0406169Y0129753D01*
X0407153Y0130737D01*
X0410106Y0130737D01*
X0410106Y0127784D02*
X0409121Y0126800D01*
X0406169Y0126800D01*
X0403660Y0129753D02*
X0399723Y0129753D01*
X0397215Y0130737D02*
X0395246Y0126800D01*
X0393278Y0130737D01*
X0395246Y0228800D02*
X0397215Y0232737D01*
X0399723Y0231753D02*
X0403660Y0231753D01*
X0406169Y0231753D02*
X0407153Y0232737D01*
X0410106Y0232737D01*
X0409121Y0230768D02*
X0407153Y0230768D01*
X0406169Y0231753D01*
X0406169Y0228800D02*
X0409121Y0228800D01*
X0410106Y0229784D01*
X0409121Y0230768D01*
X0412614Y0229784D02*
X0413599Y0228800D01*
X0416551Y0228800D01*
X0419060Y0229784D02*
X0420044Y0228800D01*
X0422012Y0228800D01*
X0422997Y0229784D01*
X0422997Y0231753D01*
X0422012Y0232737D01*
X0420044Y0232737D01*
X0419060Y0231753D01*
X0419060Y0229784D01*
X0416551Y0232737D02*
X0413599Y0232737D01*
X0412614Y0231753D01*
X0412614Y0229784D01*
X0425505Y0228800D02*
X0425505Y0232737D01*
X0425505Y0230768D02*
X0427474Y0232737D01*
X0428458Y0232737D01*
X0430877Y0231753D02*
X0431861Y0232737D01*
X0433829Y0232737D01*
X0434813Y0231753D01*
X0434813Y0230768D01*
X0430877Y0230768D01*
X0430877Y0229784D02*
X0430877Y0231753D01*
X0430877Y0229784D02*
X0431861Y0228800D01*
X0433829Y0228800D01*
X0395246Y0228800D02*
X0393278Y0232737D01*
X0395246Y0330800D02*
X0397215Y0334737D01*
X0399723Y0333753D02*
X0403660Y0333753D01*
X0406169Y0333753D02*
X0407153Y0334737D01*
X0410106Y0334737D01*
X0409121Y0332768D02*
X0410106Y0331784D01*
X0409121Y0330800D01*
X0406169Y0330800D01*
X0407153Y0332768D02*
X0406169Y0333753D01*
X0407153Y0332768D02*
X0409121Y0332768D01*
X0412614Y0331784D02*
X0413599Y0330800D01*
X0416551Y0330800D01*
X0419060Y0331784D02*
X0419060Y0333753D01*
X0420044Y0334737D01*
X0422012Y0334737D01*
X0422997Y0333753D01*
X0422997Y0331784D01*
X0422012Y0330800D01*
X0420044Y0330800D01*
X0419060Y0331784D01*
X0416551Y0334737D02*
X0413599Y0334737D01*
X0412614Y0333753D01*
X0412614Y0331784D01*
X0425505Y0330800D02*
X0425505Y0334737D01*
X0425505Y0332768D02*
X0427474Y0334737D01*
X0428458Y0334737D01*
X0430877Y0333753D02*
X0431861Y0334737D01*
X0433829Y0334737D01*
X0434813Y0333753D01*
X0434813Y0332768D01*
X0430877Y0332768D01*
X0430877Y0331784D02*
X0430877Y0333753D01*
X0430877Y0331784D02*
X0431861Y0330800D01*
X0433829Y0330800D01*
X0395246Y0330800D02*
X0393278Y0334737D01*
X0352829Y0390800D02*
X0350861Y0390800D01*
X0349877Y0391784D01*
X0349877Y0393753D01*
X0350861Y0394737D01*
X0352829Y0394737D01*
X0353813Y0393753D01*
X0353813Y0392768D01*
X0349877Y0392768D01*
X0347458Y0394737D02*
X0346474Y0394737D01*
X0344505Y0392768D01*
X0344505Y0390800D02*
X0344505Y0394737D01*
X0341997Y0393753D02*
X0341997Y0391784D01*
X0341012Y0390800D01*
X0339044Y0390800D01*
X0338060Y0391784D01*
X0338060Y0393753D01*
X0339044Y0394737D01*
X0341012Y0394737D01*
X0341997Y0393753D01*
X0335551Y0394737D02*
X0332599Y0394737D01*
X0331614Y0393753D01*
X0331614Y0391784D01*
X0332599Y0390800D01*
X0335551Y0390800D01*
X0329106Y0391784D02*
X0328121Y0392768D01*
X0326153Y0392768D01*
X0325169Y0393753D01*
X0326153Y0394737D01*
X0329106Y0394737D01*
X0329106Y0391784D02*
X0328121Y0390800D01*
X0325169Y0390800D01*
X0322660Y0393753D02*
X0318723Y0393753D01*
X0316215Y0394737D02*
X0314246Y0390800D01*
X0312278Y0394737D01*
X0251813Y0393753D02*
X0251813Y0392768D01*
X0247877Y0392768D01*
X0247877Y0391784D02*
X0247877Y0393753D01*
X0248861Y0394737D01*
X0250829Y0394737D01*
X0251813Y0393753D01*
X0250829Y0390800D02*
X0248861Y0390800D01*
X0247877Y0391784D01*
X0245458Y0394737D02*
X0244474Y0394737D01*
X0242505Y0392768D01*
X0242505Y0390800D02*
X0242505Y0394737D01*
X0239997Y0393753D02*
X0239997Y0391784D01*
X0239012Y0390800D01*
X0237044Y0390800D01*
X0236060Y0391784D01*
X0236060Y0393753D01*
X0237044Y0394737D01*
X0239012Y0394737D01*
X0239997Y0393753D01*
X0233551Y0394737D02*
X0230599Y0394737D01*
X0229614Y0393753D01*
X0229614Y0391784D01*
X0230599Y0390800D01*
X0233551Y0390800D01*
X0227106Y0391784D02*
X0226121Y0392768D01*
X0224153Y0392768D01*
X0223169Y0393753D01*
X0224153Y0394737D01*
X0227106Y0394737D01*
X0227106Y0391784D02*
X0226121Y0390800D01*
X0223169Y0390800D01*
X0220660Y0393753D02*
X0216723Y0393753D01*
X0214215Y0394737D02*
X0212246Y0390800D01*
X0210278Y0394737D01*
X0149813Y0393753D02*
X0149813Y0392768D01*
X0145877Y0392768D01*
X0145877Y0391784D02*
X0145877Y0393753D01*
X0146861Y0394737D01*
X0148829Y0394737D01*
X0149813Y0393753D01*
X0148829Y0390800D02*
X0146861Y0390800D01*
X0145877Y0391784D01*
X0143458Y0394737D02*
X0142474Y0394737D01*
X0140505Y0392768D01*
X0140505Y0390800D02*
X0140505Y0394737D01*
X0137997Y0393753D02*
X0137012Y0394737D01*
X0135044Y0394737D01*
X0134060Y0393753D01*
X0134060Y0391784D01*
X0135044Y0390800D01*
X0137012Y0390800D01*
X0137997Y0391784D01*
X0137997Y0393753D01*
X0131551Y0394737D02*
X0128599Y0394737D01*
X0127614Y0393753D01*
X0127614Y0391784D01*
X0128599Y0390800D01*
X0131551Y0390800D01*
X0125106Y0391784D02*
X0124121Y0392768D01*
X0122153Y0392768D01*
X0121169Y0393753D01*
X0122153Y0394737D01*
X0125106Y0394737D01*
X0125106Y0391784D02*
X0124121Y0390800D01*
X0121169Y0390800D01*
X0118660Y0393753D02*
X0114723Y0393753D01*
X0112215Y0394737D02*
X0110246Y0390800D01*
X0108278Y0394737D01*
X0047813Y0393753D02*
X0047813Y0392768D01*
X0043877Y0392768D01*
X0043877Y0391784D02*
X0043877Y0393753D01*
X0044861Y0394737D01*
X0046829Y0394737D01*
X0047813Y0393753D01*
X0046829Y0390800D02*
X0044861Y0390800D01*
X0043877Y0391784D01*
X0041458Y0394737D02*
X0040474Y0394737D01*
X0038505Y0392768D01*
X0038505Y0390800D02*
X0038505Y0394737D01*
X0035997Y0393753D02*
X0035012Y0394737D01*
X0033044Y0394737D01*
X0032060Y0393753D01*
X0032060Y0391784D01*
X0033044Y0390800D01*
X0035012Y0390800D01*
X0035997Y0391784D01*
X0035997Y0393753D01*
X0029551Y0394737D02*
X0026599Y0394737D01*
X0025614Y0393753D01*
X0025614Y0391784D01*
X0026599Y0390800D01*
X0029551Y0390800D01*
X0023106Y0391784D02*
X0022121Y0392768D01*
X0020153Y0392768D01*
X0019169Y0393753D01*
X0020153Y0394737D01*
X0023106Y0394737D01*
X0023106Y0391784D02*
X0022121Y0390800D01*
X0019169Y0390800D01*
X0016660Y0393753D02*
X0012723Y0393753D01*
X0010215Y0394737D02*
X0008246Y0390800D01*
X0006278Y0394737D01*
D13*
X0001750Y0026750D02*
X0001750Y0001750D01*
X0359750Y0001750D01*
X0359750Y0026750D01*
X0001750Y0026750D01*
X0001750Y0028750D02*
X0001750Y0332750D01*
X0026750Y0332750D01*
X0026750Y0028750D01*
X0001750Y0028750D01*
X0001750Y0334750D02*
X0001750Y0359750D01*
X0359750Y0359750D01*
X0359750Y0334750D01*
X0001750Y0334750D01*
X0334750Y0332750D02*
X0334750Y0028750D01*
X0359750Y0028750D01*
X0359750Y0332750D01*
X0334750Y0332750D01*
D14*
X0316250Y0322750D02*
X0316252Y0322911D01*
X0316258Y0323071D01*
X0316268Y0323232D01*
X0316282Y0323392D01*
X0316300Y0323552D01*
X0316321Y0323711D01*
X0316347Y0323870D01*
X0316377Y0324028D01*
X0316410Y0324185D01*
X0316448Y0324342D01*
X0316489Y0324497D01*
X0316534Y0324651D01*
X0316583Y0324804D01*
X0316636Y0324956D01*
X0316692Y0325107D01*
X0316753Y0325256D01*
X0316816Y0325404D01*
X0316884Y0325550D01*
X0316955Y0325694D01*
X0317029Y0325836D01*
X0317107Y0325977D01*
X0317189Y0326115D01*
X0317274Y0326252D01*
X0317362Y0326386D01*
X0317454Y0326518D01*
X0317549Y0326648D01*
X0317647Y0326776D01*
X0317748Y0326901D01*
X0317852Y0327023D01*
X0317959Y0327143D01*
X0318069Y0327260D01*
X0318182Y0327375D01*
X0318298Y0327486D01*
X0318417Y0327595D01*
X0318538Y0327700D01*
X0318662Y0327803D01*
X0318788Y0327903D01*
X0318916Y0327999D01*
X0319047Y0328092D01*
X0319181Y0328182D01*
X0319316Y0328269D01*
X0319454Y0328352D01*
X0319593Y0328432D01*
X0319735Y0328508D01*
X0319878Y0328581D01*
X0320023Y0328650D01*
X0320170Y0328716D01*
X0320318Y0328778D01*
X0320468Y0328836D01*
X0320619Y0328891D01*
X0320772Y0328942D01*
X0320926Y0328989D01*
X0321081Y0329032D01*
X0321237Y0329071D01*
X0321393Y0329107D01*
X0321551Y0329138D01*
X0321709Y0329166D01*
X0321868Y0329190D01*
X0322028Y0329210D01*
X0322188Y0329226D01*
X0322348Y0329238D01*
X0322509Y0329246D01*
X0322670Y0329250D01*
X0322830Y0329250D01*
X0322991Y0329246D01*
X0323152Y0329238D01*
X0323312Y0329226D01*
X0323472Y0329210D01*
X0323632Y0329190D01*
X0323791Y0329166D01*
X0323949Y0329138D01*
X0324107Y0329107D01*
X0324263Y0329071D01*
X0324419Y0329032D01*
X0324574Y0328989D01*
X0324728Y0328942D01*
X0324881Y0328891D01*
X0325032Y0328836D01*
X0325182Y0328778D01*
X0325330Y0328716D01*
X0325477Y0328650D01*
X0325622Y0328581D01*
X0325765Y0328508D01*
X0325907Y0328432D01*
X0326046Y0328352D01*
X0326184Y0328269D01*
X0326319Y0328182D01*
X0326453Y0328092D01*
X0326584Y0327999D01*
X0326712Y0327903D01*
X0326838Y0327803D01*
X0326962Y0327700D01*
X0327083Y0327595D01*
X0327202Y0327486D01*
X0327318Y0327375D01*
X0327431Y0327260D01*
X0327541Y0327143D01*
X0327648Y0327023D01*
X0327752Y0326901D01*
X0327853Y0326776D01*
X0327951Y0326648D01*
X0328046Y0326518D01*
X0328138Y0326386D01*
X0328226Y0326252D01*
X0328311Y0326115D01*
X0328393Y0325977D01*
X0328471Y0325836D01*
X0328545Y0325694D01*
X0328616Y0325550D01*
X0328684Y0325404D01*
X0328747Y0325256D01*
X0328808Y0325107D01*
X0328864Y0324956D01*
X0328917Y0324804D01*
X0328966Y0324651D01*
X0329011Y0324497D01*
X0329052Y0324342D01*
X0329090Y0324185D01*
X0329123Y0324028D01*
X0329153Y0323870D01*
X0329179Y0323711D01*
X0329200Y0323552D01*
X0329218Y0323392D01*
X0329232Y0323232D01*
X0329242Y0323071D01*
X0329248Y0322911D01*
X0329250Y0322750D01*
X0329248Y0322589D01*
X0329242Y0322429D01*
X0329232Y0322268D01*
X0329218Y0322108D01*
X0329200Y0321948D01*
X0329179Y0321789D01*
X0329153Y0321630D01*
X0329123Y0321472D01*
X0329090Y0321315D01*
X0329052Y0321158D01*
X0329011Y0321003D01*
X0328966Y0320849D01*
X0328917Y0320696D01*
X0328864Y0320544D01*
X0328808Y0320393D01*
X0328747Y0320244D01*
X0328684Y0320096D01*
X0328616Y0319950D01*
X0328545Y0319806D01*
X0328471Y0319664D01*
X0328393Y0319523D01*
X0328311Y0319385D01*
X0328226Y0319248D01*
X0328138Y0319114D01*
X0328046Y0318982D01*
X0327951Y0318852D01*
X0327853Y0318724D01*
X0327752Y0318599D01*
X0327648Y0318477D01*
X0327541Y0318357D01*
X0327431Y0318240D01*
X0327318Y0318125D01*
X0327202Y0318014D01*
X0327083Y0317905D01*
X0326962Y0317800D01*
X0326838Y0317697D01*
X0326712Y0317597D01*
X0326584Y0317501D01*
X0326453Y0317408D01*
X0326319Y0317318D01*
X0326184Y0317231D01*
X0326046Y0317148D01*
X0325907Y0317068D01*
X0325765Y0316992D01*
X0325622Y0316919D01*
X0325477Y0316850D01*
X0325330Y0316784D01*
X0325182Y0316722D01*
X0325032Y0316664D01*
X0324881Y0316609D01*
X0324728Y0316558D01*
X0324574Y0316511D01*
X0324419Y0316468D01*
X0324263Y0316429D01*
X0324107Y0316393D01*
X0323949Y0316362D01*
X0323791Y0316334D01*
X0323632Y0316310D01*
X0323472Y0316290D01*
X0323312Y0316274D01*
X0323152Y0316262D01*
X0322991Y0316254D01*
X0322830Y0316250D01*
X0322670Y0316250D01*
X0322509Y0316254D01*
X0322348Y0316262D01*
X0322188Y0316274D01*
X0322028Y0316290D01*
X0321868Y0316310D01*
X0321709Y0316334D01*
X0321551Y0316362D01*
X0321393Y0316393D01*
X0321237Y0316429D01*
X0321081Y0316468D01*
X0320926Y0316511D01*
X0320772Y0316558D01*
X0320619Y0316609D01*
X0320468Y0316664D01*
X0320318Y0316722D01*
X0320170Y0316784D01*
X0320023Y0316850D01*
X0319878Y0316919D01*
X0319735Y0316992D01*
X0319593Y0317068D01*
X0319454Y0317148D01*
X0319316Y0317231D01*
X0319181Y0317318D01*
X0319047Y0317408D01*
X0318916Y0317501D01*
X0318788Y0317597D01*
X0318662Y0317697D01*
X0318538Y0317800D01*
X0318417Y0317905D01*
X0318298Y0318014D01*
X0318182Y0318125D01*
X0318069Y0318240D01*
X0317959Y0318357D01*
X0317852Y0318477D01*
X0317748Y0318599D01*
X0317647Y0318724D01*
X0317549Y0318852D01*
X0317454Y0318982D01*
X0317362Y0319114D01*
X0317274Y0319248D01*
X0317189Y0319385D01*
X0317107Y0319523D01*
X0317029Y0319664D01*
X0316955Y0319806D01*
X0316884Y0319950D01*
X0316816Y0320096D01*
X0316753Y0320244D01*
X0316692Y0320393D01*
X0316636Y0320544D01*
X0316583Y0320696D01*
X0316534Y0320849D01*
X0316489Y0321003D01*
X0316448Y0321158D01*
X0316410Y0321315D01*
X0316377Y0321472D01*
X0316347Y0321630D01*
X0316321Y0321789D01*
X0316300Y0321948D01*
X0316282Y0322108D01*
X0316268Y0322268D01*
X0316258Y0322429D01*
X0316252Y0322589D01*
X0316250Y0322750D01*
X0236250Y0322750D02*
X0236252Y0322911D01*
X0236258Y0323071D01*
X0236268Y0323232D01*
X0236282Y0323392D01*
X0236300Y0323552D01*
X0236321Y0323711D01*
X0236347Y0323870D01*
X0236377Y0324028D01*
X0236410Y0324185D01*
X0236448Y0324342D01*
X0236489Y0324497D01*
X0236534Y0324651D01*
X0236583Y0324804D01*
X0236636Y0324956D01*
X0236692Y0325107D01*
X0236753Y0325256D01*
X0236816Y0325404D01*
X0236884Y0325550D01*
X0236955Y0325694D01*
X0237029Y0325836D01*
X0237107Y0325977D01*
X0237189Y0326115D01*
X0237274Y0326252D01*
X0237362Y0326386D01*
X0237454Y0326518D01*
X0237549Y0326648D01*
X0237647Y0326776D01*
X0237748Y0326901D01*
X0237852Y0327023D01*
X0237959Y0327143D01*
X0238069Y0327260D01*
X0238182Y0327375D01*
X0238298Y0327486D01*
X0238417Y0327595D01*
X0238538Y0327700D01*
X0238662Y0327803D01*
X0238788Y0327903D01*
X0238916Y0327999D01*
X0239047Y0328092D01*
X0239181Y0328182D01*
X0239316Y0328269D01*
X0239454Y0328352D01*
X0239593Y0328432D01*
X0239735Y0328508D01*
X0239878Y0328581D01*
X0240023Y0328650D01*
X0240170Y0328716D01*
X0240318Y0328778D01*
X0240468Y0328836D01*
X0240619Y0328891D01*
X0240772Y0328942D01*
X0240926Y0328989D01*
X0241081Y0329032D01*
X0241237Y0329071D01*
X0241393Y0329107D01*
X0241551Y0329138D01*
X0241709Y0329166D01*
X0241868Y0329190D01*
X0242028Y0329210D01*
X0242188Y0329226D01*
X0242348Y0329238D01*
X0242509Y0329246D01*
X0242670Y0329250D01*
X0242830Y0329250D01*
X0242991Y0329246D01*
X0243152Y0329238D01*
X0243312Y0329226D01*
X0243472Y0329210D01*
X0243632Y0329190D01*
X0243791Y0329166D01*
X0243949Y0329138D01*
X0244107Y0329107D01*
X0244263Y0329071D01*
X0244419Y0329032D01*
X0244574Y0328989D01*
X0244728Y0328942D01*
X0244881Y0328891D01*
X0245032Y0328836D01*
X0245182Y0328778D01*
X0245330Y0328716D01*
X0245477Y0328650D01*
X0245622Y0328581D01*
X0245765Y0328508D01*
X0245907Y0328432D01*
X0246046Y0328352D01*
X0246184Y0328269D01*
X0246319Y0328182D01*
X0246453Y0328092D01*
X0246584Y0327999D01*
X0246712Y0327903D01*
X0246838Y0327803D01*
X0246962Y0327700D01*
X0247083Y0327595D01*
X0247202Y0327486D01*
X0247318Y0327375D01*
X0247431Y0327260D01*
X0247541Y0327143D01*
X0247648Y0327023D01*
X0247752Y0326901D01*
X0247853Y0326776D01*
X0247951Y0326648D01*
X0248046Y0326518D01*
X0248138Y0326386D01*
X0248226Y0326252D01*
X0248311Y0326115D01*
X0248393Y0325977D01*
X0248471Y0325836D01*
X0248545Y0325694D01*
X0248616Y0325550D01*
X0248684Y0325404D01*
X0248747Y0325256D01*
X0248808Y0325107D01*
X0248864Y0324956D01*
X0248917Y0324804D01*
X0248966Y0324651D01*
X0249011Y0324497D01*
X0249052Y0324342D01*
X0249090Y0324185D01*
X0249123Y0324028D01*
X0249153Y0323870D01*
X0249179Y0323711D01*
X0249200Y0323552D01*
X0249218Y0323392D01*
X0249232Y0323232D01*
X0249242Y0323071D01*
X0249248Y0322911D01*
X0249250Y0322750D01*
X0249248Y0322589D01*
X0249242Y0322429D01*
X0249232Y0322268D01*
X0249218Y0322108D01*
X0249200Y0321948D01*
X0249179Y0321789D01*
X0249153Y0321630D01*
X0249123Y0321472D01*
X0249090Y0321315D01*
X0249052Y0321158D01*
X0249011Y0321003D01*
X0248966Y0320849D01*
X0248917Y0320696D01*
X0248864Y0320544D01*
X0248808Y0320393D01*
X0248747Y0320244D01*
X0248684Y0320096D01*
X0248616Y0319950D01*
X0248545Y0319806D01*
X0248471Y0319664D01*
X0248393Y0319523D01*
X0248311Y0319385D01*
X0248226Y0319248D01*
X0248138Y0319114D01*
X0248046Y0318982D01*
X0247951Y0318852D01*
X0247853Y0318724D01*
X0247752Y0318599D01*
X0247648Y0318477D01*
X0247541Y0318357D01*
X0247431Y0318240D01*
X0247318Y0318125D01*
X0247202Y0318014D01*
X0247083Y0317905D01*
X0246962Y0317800D01*
X0246838Y0317697D01*
X0246712Y0317597D01*
X0246584Y0317501D01*
X0246453Y0317408D01*
X0246319Y0317318D01*
X0246184Y0317231D01*
X0246046Y0317148D01*
X0245907Y0317068D01*
X0245765Y0316992D01*
X0245622Y0316919D01*
X0245477Y0316850D01*
X0245330Y0316784D01*
X0245182Y0316722D01*
X0245032Y0316664D01*
X0244881Y0316609D01*
X0244728Y0316558D01*
X0244574Y0316511D01*
X0244419Y0316468D01*
X0244263Y0316429D01*
X0244107Y0316393D01*
X0243949Y0316362D01*
X0243791Y0316334D01*
X0243632Y0316310D01*
X0243472Y0316290D01*
X0243312Y0316274D01*
X0243152Y0316262D01*
X0242991Y0316254D01*
X0242830Y0316250D01*
X0242670Y0316250D01*
X0242509Y0316254D01*
X0242348Y0316262D01*
X0242188Y0316274D01*
X0242028Y0316290D01*
X0241868Y0316310D01*
X0241709Y0316334D01*
X0241551Y0316362D01*
X0241393Y0316393D01*
X0241237Y0316429D01*
X0241081Y0316468D01*
X0240926Y0316511D01*
X0240772Y0316558D01*
X0240619Y0316609D01*
X0240468Y0316664D01*
X0240318Y0316722D01*
X0240170Y0316784D01*
X0240023Y0316850D01*
X0239878Y0316919D01*
X0239735Y0316992D01*
X0239593Y0317068D01*
X0239454Y0317148D01*
X0239316Y0317231D01*
X0239181Y0317318D01*
X0239047Y0317408D01*
X0238916Y0317501D01*
X0238788Y0317597D01*
X0238662Y0317697D01*
X0238538Y0317800D01*
X0238417Y0317905D01*
X0238298Y0318014D01*
X0238182Y0318125D01*
X0238069Y0318240D01*
X0237959Y0318357D01*
X0237852Y0318477D01*
X0237748Y0318599D01*
X0237647Y0318724D01*
X0237549Y0318852D01*
X0237454Y0318982D01*
X0237362Y0319114D01*
X0237274Y0319248D01*
X0237189Y0319385D01*
X0237107Y0319523D01*
X0237029Y0319664D01*
X0236955Y0319806D01*
X0236884Y0319950D01*
X0236816Y0320096D01*
X0236753Y0320244D01*
X0236692Y0320393D01*
X0236636Y0320544D01*
X0236583Y0320696D01*
X0236534Y0320849D01*
X0236489Y0321003D01*
X0236448Y0321158D01*
X0236410Y0321315D01*
X0236377Y0321472D01*
X0236347Y0321630D01*
X0236321Y0321789D01*
X0236300Y0321948D01*
X0236282Y0322108D01*
X0236268Y0322268D01*
X0236258Y0322429D01*
X0236252Y0322589D01*
X0236250Y0322750D01*
X0214250Y0322750D02*
X0214252Y0322911D01*
X0214258Y0323071D01*
X0214268Y0323232D01*
X0214282Y0323392D01*
X0214300Y0323552D01*
X0214321Y0323711D01*
X0214347Y0323870D01*
X0214377Y0324028D01*
X0214410Y0324185D01*
X0214448Y0324342D01*
X0214489Y0324497D01*
X0214534Y0324651D01*
X0214583Y0324804D01*
X0214636Y0324956D01*
X0214692Y0325107D01*
X0214753Y0325256D01*
X0214816Y0325404D01*
X0214884Y0325550D01*
X0214955Y0325694D01*
X0215029Y0325836D01*
X0215107Y0325977D01*
X0215189Y0326115D01*
X0215274Y0326252D01*
X0215362Y0326386D01*
X0215454Y0326518D01*
X0215549Y0326648D01*
X0215647Y0326776D01*
X0215748Y0326901D01*
X0215852Y0327023D01*
X0215959Y0327143D01*
X0216069Y0327260D01*
X0216182Y0327375D01*
X0216298Y0327486D01*
X0216417Y0327595D01*
X0216538Y0327700D01*
X0216662Y0327803D01*
X0216788Y0327903D01*
X0216916Y0327999D01*
X0217047Y0328092D01*
X0217181Y0328182D01*
X0217316Y0328269D01*
X0217454Y0328352D01*
X0217593Y0328432D01*
X0217735Y0328508D01*
X0217878Y0328581D01*
X0218023Y0328650D01*
X0218170Y0328716D01*
X0218318Y0328778D01*
X0218468Y0328836D01*
X0218619Y0328891D01*
X0218772Y0328942D01*
X0218926Y0328989D01*
X0219081Y0329032D01*
X0219237Y0329071D01*
X0219393Y0329107D01*
X0219551Y0329138D01*
X0219709Y0329166D01*
X0219868Y0329190D01*
X0220028Y0329210D01*
X0220188Y0329226D01*
X0220348Y0329238D01*
X0220509Y0329246D01*
X0220670Y0329250D01*
X0220830Y0329250D01*
X0220991Y0329246D01*
X0221152Y0329238D01*
X0221312Y0329226D01*
X0221472Y0329210D01*
X0221632Y0329190D01*
X0221791Y0329166D01*
X0221949Y0329138D01*
X0222107Y0329107D01*
X0222263Y0329071D01*
X0222419Y0329032D01*
X0222574Y0328989D01*
X0222728Y0328942D01*
X0222881Y0328891D01*
X0223032Y0328836D01*
X0223182Y0328778D01*
X0223330Y0328716D01*
X0223477Y0328650D01*
X0223622Y0328581D01*
X0223765Y0328508D01*
X0223907Y0328432D01*
X0224046Y0328352D01*
X0224184Y0328269D01*
X0224319Y0328182D01*
X0224453Y0328092D01*
X0224584Y0327999D01*
X0224712Y0327903D01*
X0224838Y0327803D01*
X0224962Y0327700D01*
X0225083Y0327595D01*
X0225202Y0327486D01*
X0225318Y0327375D01*
X0225431Y0327260D01*
X0225541Y0327143D01*
X0225648Y0327023D01*
X0225752Y0326901D01*
X0225853Y0326776D01*
X0225951Y0326648D01*
X0226046Y0326518D01*
X0226138Y0326386D01*
X0226226Y0326252D01*
X0226311Y0326115D01*
X0226393Y0325977D01*
X0226471Y0325836D01*
X0226545Y0325694D01*
X0226616Y0325550D01*
X0226684Y0325404D01*
X0226747Y0325256D01*
X0226808Y0325107D01*
X0226864Y0324956D01*
X0226917Y0324804D01*
X0226966Y0324651D01*
X0227011Y0324497D01*
X0227052Y0324342D01*
X0227090Y0324185D01*
X0227123Y0324028D01*
X0227153Y0323870D01*
X0227179Y0323711D01*
X0227200Y0323552D01*
X0227218Y0323392D01*
X0227232Y0323232D01*
X0227242Y0323071D01*
X0227248Y0322911D01*
X0227250Y0322750D01*
X0227248Y0322589D01*
X0227242Y0322429D01*
X0227232Y0322268D01*
X0227218Y0322108D01*
X0227200Y0321948D01*
X0227179Y0321789D01*
X0227153Y0321630D01*
X0227123Y0321472D01*
X0227090Y0321315D01*
X0227052Y0321158D01*
X0227011Y0321003D01*
X0226966Y0320849D01*
X0226917Y0320696D01*
X0226864Y0320544D01*
X0226808Y0320393D01*
X0226747Y0320244D01*
X0226684Y0320096D01*
X0226616Y0319950D01*
X0226545Y0319806D01*
X0226471Y0319664D01*
X0226393Y0319523D01*
X0226311Y0319385D01*
X0226226Y0319248D01*
X0226138Y0319114D01*
X0226046Y0318982D01*
X0225951Y0318852D01*
X0225853Y0318724D01*
X0225752Y0318599D01*
X0225648Y0318477D01*
X0225541Y0318357D01*
X0225431Y0318240D01*
X0225318Y0318125D01*
X0225202Y0318014D01*
X0225083Y0317905D01*
X0224962Y0317800D01*
X0224838Y0317697D01*
X0224712Y0317597D01*
X0224584Y0317501D01*
X0224453Y0317408D01*
X0224319Y0317318D01*
X0224184Y0317231D01*
X0224046Y0317148D01*
X0223907Y0317068D01*
X0223765Y0316992D01*
X0223622Y0316919D01*
X0223477Y0316850D01*
X0223330Y0316784D01*
X0223182Y0316722D01*
X0223032Y0316664D01*
X0222881Y0316609D01*
X0222728Y0316558D01*
X0222574Y0316511D01*
X0222419Y0316468D01*
X0222263Y0316429D01*
X0222107Y0316393D01*
X0221949Y0316362D01*
X0221791Y0316334D01*
X0221632Y0316310D01*
X0221472Y0316290D01*
X0221312Y0316274D01*
X0221152Y0316262D01*
X0220991Y0316254D01*
X0220830Y0316250D01*
X0220670Y0316250D01*
X0220509Y0316254D01*
X0220348Y0316262D01*
X0220188Y0316274D01*
X0220028Y0316290D01*
X0219868Y0316310D01*
X0219709Y0316334D01*
X0219551Y0316362D01*
X0219393Y0316393D01*
X0219237Y0316429D01*
X0219081Y0316468D01*
X0218926Y0316511D01*
X0218772Y0316558D01*
X0218619Y0316609D01*
X0218468Y0316664D01*
X0218318Y0316722D01*
X0218170Y0316784D01*
X0218023Y0316850D01*
X0217878Y0316919D01*
X0217735Y0316992D01*
X0217593Y0317068D01*
X0217454Y0317148D01*
X0217316Y0317231D01*
X0217181Y0317318D01*
X0217047Y0317408D01*
X0216916Y0317501D01*
X0216788Y0317597D01*
X0216662Y0317697D01*
X0216538Y0317800D01*
X0216417Y0317905D01*
X0216298Y0318014D01*
X0216182Y0318125D01*
X0216069Y0318240D01*
X0215959Y0318357D01*
X0215852Y0318477D01*
X0215748Y0318599D01*
X0215647Y0318724D01*
X0215549Y0318852D01*
X0215454Y0318982D01*
X0215362Y0319114D01*
X0215274Y0319248D01*
X0215189Y0319385D01*
X0215107Y0319523D01*
X0215029Y0319664D01*
X0214955Y0319806D01*
X0214884Y0319950D01*
X0214816Y0320096D01*
X0214753Y0320244D01*
X0214692Y0320393D01*
X0214636Y0320544D01*
X0214583Y0320696D01*
X0214534Y0320849D01*
X0214489Y0321003D01*
X0214448Y0321158D01*
X0214410Y0321315D01*
X0214377Y0321472D01*
X0214347Y0321630D01*
X0214321Y0321789D01*
X0214300Y0321948D01*
X0214282Y0322108D01*
X0214268Y0322268D01*
X0214258Y0322429D01*
X0214252Y0322589D01*
X0214250Y0322750D01*
X0134250Y0322750D02*
X0134252Y0322911D01*
X0134258Y0323071D01*
X0134268Y0323232D01*
X0134282Y0323392D01*
X0134300Y0323552D01*
X0134321Y0323711D01*
X0134347Y0323870D01*
X0134377Y0324028D01*
X0134410Y0324185D01*
X0134448Y0324342D01*
X0134489Y0324497D01*
X0134534Y0324651D01*
X0134583Y0324804D01*
X0134636Y0324956D01*
X0134692Y0325107D01*
X0134753Y0325256D01*
X0134816Y0325404D01*
X0134884Y0325550D01*
X0134955Y0325694D01*
X0135029Y0325836D01*
X0135107Y0325977D01*
X0135189Y0326115D01*
X0135274Y0326252D01*
X0135362Y0326386D01*
X0135454Y0326518D01*
X0135549Y0326648D01*
X0135647Y0326776D01*
X0135748Y0326901D01*
X0135852Y0327023D01*
X0135959Y0327143D01*
X0136069Y0327260D01*
X0136182Y0327375D01*
X0136298Y0327486D01*
X0136417Y0327595D01*
X0136538Y0327700D01*
X0136662Y0327803D01*
X0136788Y0327903D01*
X0136916Y0327999D01*
X0137047Y0328092D01*
X0137181Y0328182D01*
X0137316Y0328269D01*
X0137454Y0328352D01*
X0137593Y0328432D01*
X0137735Y0328508D01*
X0137878Y0328581D01*
X0138023Y0328650D01*
X0138170Y0328716D01*
X0138318Y0328778D01*
X0138468Y0328836D01*
X0138619Y0328891D01*
X0138772Y0328942D01*
X0138926Y0328989D01*
X0139081Y0329032D01*
X0139237Y0329071D01*
X0139393Y0329107D01*
X0139551Y0329138D01*
X0139709Y0329166D01*
X0139868Y0329190D01*
X0140028Y0329210D01*
X0140188Y0329226D01*
X0140348Y0329238D01*
X0140509Y0329246D01*
X0140670Y0329250D01*
X0140830Y0329250D01*
X0140991Y0329246D01*
X0141152Y0329238D01*
X0141312Y0329226D01*
X0141472Y0329210D01*
X0141632Y0329190D01*
X0141791Y0329166D01*
X0141949Y0329138D01*
X0142107Y0329107D01*
X0142263Y0329071D01*
X0142419Y0329032D01*
X0142574Y0328989D01*
X0142728Y0328942D01*
X0142881Y0328891D01*
X0143032Y0328836D01*
X0143182Y0328778D01*
X0143330Y0328716D01*
X0143477Y0328650D01*
X0143622Y0328581D01*
X0143765Y0328508D01*
X0143907Y0328432D01*
X0144046Y0328352D01*
X0144184Y0328269D01*
X0144319Y0328182D01*
X0144453Y0328092D01*
X0144584Y0327999D01*
X0144712Y0327903D01*
X0144838Y0327803D01*
X0144962Y0327700D01*
X0145083Y0327595D01*
X0145202Y0327486D01*
X0145318Y0327375D01*
X0145431Y0327260D01*
X0145541Y0327143D01*
X0145648Y0327023D01*
X0145752Y0326901D01*
X0145853Y0326776D01*
X0145951Y0326648D01*
X0146046Y0326518D01*
X0146138Y0326386D01*
X0146226Y0326252D01*
X0146311Y0326115D01*
X0146393Y0325977D01*
X0146471Y0325836D01*
X0146545Y0325694D01*
X0146616Y0325550D01*
X0146684Y0325404D01*
X0146747Y0325256D01*
X0146808Y0325107D01*
X0146864Y0324956D01*
X0146917Y0324804D01*
X0146966Y0324651D01*
X0147011Y0324497D01*
X0147052Y0324342D01*
X0147090Y0324185D01*
X0147123Y0324028D01*
X0147153Y0323870D01*
X0147179Y0323711D01*
X0147200Y0323552D01*
X0147218Y0323392D01*
X0147232Y0323232D01*
X0147242Y0323071D01*
X0147248Y0322911D01*
X0147250Y0322750D01*
X0147248Y0322589D01*
X0147242Y0322429D01*
X0147232Y0322268D01*
X0147218Y0322108D01*
X0147200Y0321948D01*
X0147179Y0321789D01*
X0147153Y0321630D01*
X0147123Y0321472D01*
X0147090Y0321315D01*
X0147052Y0321158D01*
X0147011Y0321003D01*
X0146966Y0320849D01*
X0146917Y0320696D01*
X0146864Y0320544D01*
X0146808Y0320393D01*
X0146747Y0320244D01*
X0146684Y0320096D01*
X0146616Y0319950D01*
X0146545Y0319806D01*
X0146471Y0319664D01*
X0146393Y0319523D01*
X0146311Y0319385D01*
X0146226Y0319248D01*
X0146138Y0319114D01*
X0146046Y0318982D01*
X0145951Y0318852D01*
X0145853Y0318724D01*
X0145752Y0318599D01*
X0145648Y0318477D01*
X0145541Y0318357D01*
X0145431Y0318240D01*
X0145318Y0318125D01*
X0145202Y0318014D01*
X0145083Y0317905D01*
X0144962Y0317800D01*
X0144838Y0317697D01*
X0144712Y0317597D01*
X0144584Y0317501D01*
X0144453Y0317408D01*
X0144319Y0317318D01*
X0144184Y0317231D01*
X0144046Y0317148D01*
X0143907Y0317068D01*
X0143765Y0316992D01*
X0143622Y0316919D01*
X0143477Y0316850D01*
X0143330Y0316784D01*
X0143182Y0316722D01*
X0143032Y0316664D01*
X0142881Y0316609D01*
X0142728Y0316558D01*
X0142574Y0316511D01*
X0142419Y0316468D01*
X0142263Y0316429D01*
X0142107Y0316393D01*
X0141949Y0316362D01*
X0141791Y0316334D01*
X0141632Y0316310D01*
X0141472Y0316290D01*
X0141312Y0316274D01*
X0141152Y0316262D01*
X0140991Y0316254D01*
X0140830Y0316250D01*
X0140670Y0316250D01*
X0140509Y0316254D01*
X0140348Y0316262D01*
X0140188Y0316274D01*
X0140028Y0316290D01*
X0139868Y0316310D01*
X0139709Y0316334D01*
X0139551Y0316362D01*
X0139393Y0316393D01*
X0139237Y0316429D01*
X0139081Y0316468D01*
X0138926Y0316511D01*
X0138772Y0316558D01*
X0138619Y0316609D01*
X0138468Y0316664D01*
X0138318Y0316722D01*
X0138170Y0316784D01*
X0138023Y0316850D01*
X0137878Y0316919D01*
X0137735Y0316992D01*
X0137593Y0317068D01*
X0137454Y0317148D01*
X0137316Y0317231D01*
X0137181Y0317318D01*
X0137047Y0317408D01*
X0136916Y0317501D01*
X0136788Y0317597D01*
X0136662Y0317697D01*
X0136538Y0317800D01*
X0136417Y0317905D01*
X0136298Y0318014D01*
X0136182Y0318125D01*
X0136069Y0318240D01*
X0135959Y0318357D01*
X0135852Y0318477D01*
X0135748Y0318599D01*
X0135647Y0318724D01*
X0135549Y0318852D01*
X0135454Y0318982D01*
X0135362Y0319114D01*
X0135274Y0319248D01*
X0135189Y0319385D01*
X0135107Y0319523D01*
X0135029Y0319664D01*
X0134955Y0319806D01*
X0134884Y0319950D01*
X0134816Y0320096D01*
X0134753Y0320244D01*
X0134692Y0320393D01*
X0134636Y0320544D01*
X0134583Y0320696D01*
X0134534Y0320849D01*
X0134489Y0321003D01*
X0134448Y0321158D01*
X0134410Y0321315D01*
X0134377Y0321472D01*
X0134347Y0321630D01*
X0134321Y0321789D01*
X0134300Y0321948D01*
X0134282Y0322108D01*
X0134268Y0322268D01*
X0134258Y0322429D01*
X0134252Y0322589D01*
X0134250Y0322750D01*
X0112250Y0322750D02*
X0112252Y0322911D01*
X0112258Y0323071D01*
X0112268Y0323232D01*
X0112282Y0323392D01*
X0112300Y0323552D01*
X0112321Y0323711D01*
X0112347Y0323870D01*
X0112377Y0324028D01*
X0112410Y0324185D01*
X0112448Y0324342D01*
X0112489Y0324497D01*
X0112534Y0324651D01*
X0112583Y0324804D01*
X0112636Y0324956D01*
X0112692Y0325107D01*
X0112753Y0325256D01*
X0112816Y0325404D01*
X0112884Y0325550D01*
X0112955Y0325694D01*
X0113029Y0325836D01*
X0113107Y0325977D01*
X0113189Y0326115D01*
X0113274Y0326252D01*
X0113362Y0326386D01*
X0113454Y0326518D01*
X0113549Y0326648D01*
X0113647Y0326776D01*
X0113748Y0326901D01*
X0113852Y0327023D01*
X0113959Y0327143D01*
X0114069Y0327260D01*
X0114182Y0327375D01*
X0114298Y0327486D01*
X0114417Y0327595D01*
X0114538Y0327700D01*
X0114662Y0327803D01*
X0114788Y0327903D01*
X0114916Y0327999D01*
X0115047Y0328092D01*
X0115181Y0328182D01*
X0115316Y0328269D01*
X0115454Y0328352D01*
X0115593Y0328432D01*
X0115735Y0328508D01*
X0115878Y0328581D01*
X0116023Y0328650D01*
X0116170Y0328716D01*
X0116318Y0328778D01*
X0116468Y0328836D01*
X0116619Y0328891D01*
X0116772Y0328942D01*
X0116926Y0328989D01*
X0117081Y0329032D01*
X0117237Y0329071D01*
X0117393Y0329107D01*
X0117551Y0329138D01*
X0117709Y0329166D01*
X0117868Y0329190D01*
X0118028Y0329210D01*
X0118188Y0329226D01*
X0118348Y0329238D01*
X0118509Y0329246D01*
X0118670Y0329250D01*
X0118830Y0329250D01*
X0118991Y0329246D01*
X0119152Y0329238D01*
X0119312Y0329226D01*
X0119472Y0329210D01*
X0119632Y0329190D01*
X0119791Y0329166D01*
X0119949Y0329138D01*
X0120107Y0329107D01*
X0120263Y0329071D01*
X0120419Y0329032D01*
X0120574Y0328989D01*
X0120728Y0328942D01*
X0120881Y0328891D01*
X0121032Y0328836D01*
X0121182Y0328778D01*
X0121330Y0328716D01*
X0121477Y0328650D01*
X0121622Y0328581D01*
X0121765Y0328508D01*
X0121907Y0328432D01*
X0122046Y0328352D01*
X0122184Y0328269D01*
X0122319Y0328182D01*
X0122453Y0328092D01*
X0122584Y0327999D01*
X0122712Y0327903D01*
X0122838Y0327803D01*
X0122962Y0327700D01*
X0123083Y0327595D01*
X0123202Y0327486D01*
X0123318Y0327375D01*
X0123431Y0327260D01*
X0123541Y0327143D01*
X0123648Y0327023D01*
X0123752Y0326901D01*
X0123853Y0326776D01*
X0123951Y0326648D01*
X0124046Y0326518D01*
X0124138Y0326386D01*
X0124226Y0326252D01*
X0124311Y0326115D01*
X0124393Y0325977D01*
X0124471Y0325836D01*
X0124545Y0325694D01*
X0124616Y0325550D01*
X0124684Y0325404D01*
X0124747Y0325256D01*
X0124808Y0325107D01*
X0124864Y0324956D01*
X0124917Y0324804D01*
X0124966Y0324651D01*
X0125011Y0324497D01*
X0125052Y0324342D01*
X0125090Y0324185D01*
X0125123Y0324028D01*
X0125153Y0323870D01*
X0125179Y0323711D01*
X0125200Y0323552D01*
X0125218Y0323392D01*
X0125232Y0323232D01*
X0125242Y0323071D01*
X0125248Y0322911D01*
X0125250Y0322750D01*
X0125248Y0322589D01*
X0125242Y0322429D01*
X0125232Y0322268D01*
X0125218Y0322108D01*
X0125200Y0321948D01*
X0125179Y0321789D01*
X0125153Y0321630D01*
X0125123Y0321472D01*
X0125090Y0321315D01*
X0125052Y0321158D01*
X0125011Y0321003D01*
X0124966Y0320849D01*
X0124917Y0320696D01*
X0124864Y0320544D01*
X0124808Y0320393D01*
X0124747Y0320244D01*
X0124684Y0320096D01*
X0124616Y0319950D01*
X0124545Y0319806D01*
X0124471Y0319664D01*
X0124393Y0319523D01*
X0124311Y0319385D01*
X0124226Y0319248D01*
X0124138Y0319114D01*
X0124046Y0318982D01*
X0123951Y0318852D01*
X0123853Y0318724D01*
X0123752Y0318599D01*
X0123648Y0318477D01*
X0123541Y0318357D01*
X0123431Y0318240D01*
X0123318Y0318125D01*
X0123202Y0318014D01*
X0123083Y0317905D01*
X0122962Y0317800D01*
X0122838Y0317697D01*
X0122712Y0317597D01*
X0122584Y0317501D01*
X0122453Y0317408D01*
X0122319Y0317318D01*
X0122184Y0317231D01*
X0122046Y0317148D01*
X0121907Y0317068D01*
X0121765Y0316992D01*
X0121622Y0316919D01*
X0121477Y0316850D01*
X0121330Y0316784D01*
X0121182Y0316722D01*
X0121032Y0316664D01*
X0120881Y0316609D01*
X0120728Y0316558D01*
X0120574Y0316511D01*
X0120419Y0316468D01*
X0120263Y0316429D01*
X0120107Y0316393D01*
X0119949Y0316362D01*
X0119791Y0316334D01*
X0119632Y0316310D01*
X0119472Y0316290D01*
X0119312Y0316274D01*
X0119152Y0316262D01*
X0118991Y0316254D01*
X0118830Y0316250D01*
X0118670Y0316250D01*
X0118509Y0316254D01*
X0118348Y0316262D01*
X0118188Y0316274D01*
X0118028Y0316290D01*
X0117868Y0316310D01*
X0117709Y0316334D01*
X0117551Y0316362D01*
X0117393Y0316393D01*
X0117237Y0316429D01*
X0117081Y0316468D01*
X0116926Y0316511D01*
X0116772Y0316558D01*
X0116619Y0316609D01*
X0116468Y0316664D01*
X0116318Y0316722D01*
X0116170Y0316784D01*
X0116023Y0316850D01*
X0115878Y0316919D01*
X0115735Y0316992D01*
X0115593Y0317068D01*
X0115454Y0317148D01*
X0115316Y0317231D01*
X0115181Y0317318D01*
X0115047Y0317408D01*
X0114916Y0317501D01*
X0114788Y0317597D01*
X0114662Y0317697D01*
X0114538Y0317800D01*
X0114417Y0317905D01*
X0114298Y0318014D01*
X0114182Y0318125D01*
X0114069Y0318240D01*
X0113959Y0318357D01*
X0113852Y0318477D01*
X0113748Y0318599D01*
X0113647Y0318724D01*
X0113549Y0318852D01*
X0113454Y0318982D01*
X0113362Y0319114D01*
X0113274Y0319248D01*
X0113189Y0319385D01*
X0113107Y0319523D01*
X0113029Y0319664D01*
X0112955Y0319806D01*
X0112884Y0319950D01*
X0112816Y0320096D01*
X0112753Y0320244D01*
X0112692Y0320393D01*
X0112636Y0320544D01*
X0112583Y0320696D01*
X0112534Y0320849D01*
X0112489Y0321003D01*
X0112448Y0321158D01*
X0112410Y0321315D01*
X0112377Y0321472D01*
X0112347Y0321630D01*
X0112321Y0321789D01*
X0112300Y0321948D01*
X0112282Y0322108D01*
X0112268Y0322268D01*
X0112258Y0322429D01*
X0112252Y0322589D01*
X0112250Y0322750D01*
X0032250Y0322750D02*
X0032252Y0322911D01*
X0032258Y0323071D01*
X0032268Y0323232D01*
X0032282Y0323392D01*
X0032300Y0323552D01*
X0032321Y0323711D01*
X0032347Y0323870D01*
X0032377Y0324028D01*
X0032410Y0324185D01*
X0032448Y0324342D01*
X0032489Y0324497D01*
X0032534Y0324651D01*
X0032583Y0324804D01*
X0032636Y0324956D01*
X0032692Y0325107D01*
X0032753Y0325256D01*
X0032816Y0325404D01*
X0032884Y0325550D01*
X0032955Y0325694D01*
X0033029Y0325836D01*
X0033107Y0325977D01*
X0033189Y0326115D01*
X0033274Y0326252D01*
X0033362Y0326386D01*
X0033454Y0326518D01*
X0033549Y0326648D01*
X0033647Y0326776D01*
X0033748Y0326901D01*
X0033852Y0327023D01*
X0033959Y0327143D01*
X0034069Y0327260D01*
X0034182Y0327375D01*
X0034298Y0327486D01*
X0034417Y0327595D01*
X0034538Y0327700D01*
X0034662Y0327803D01*
X0034788Y0327903D01*
X0034916Y0327999D01*
X0035047Y0328092D01*
X0035181Y0328182D01*
X0035316Y0328269D01*
X0035454Y0328352D01*
X0035593Y0328432D01*
X0035735Y0328508D01*
X0035878Y0328581D01*
X0036023Y0328650D01*
X0036170Y0328716D01*
X0036318Y0328778D01*
X0036468Y0328836D01*
X0036619Y0328891D01*
X0036772Y0328942D01*
X0036926Y0328989D01*
X0037081Y0329032D01*
X0037237Y0329071D01*
X0037393Y0329107D01*
X0037551Y0329138D01*
X0037709Y0329166D01*
X0037868Y0329190D01*
X0038028Y0329210D01*
X0038188Y0329226D01*
X0038348Y0329238D01*
X0038509Y0329246D01*
X0038670Y0329250D01*
X0038830Y0329250D01*
X0038991Y0329246D01*
X0039152Y0329238D01*
X0039312Y0329226D01*
X0039472Y0329210D01*
X0039632Y0329190D01*
X0039791Y0329166D01*
X0039949Y0329138D01*
X0040107Y0329107D01*
X0040263Y0329071D01*
X0040419Y0329032D01*
X0040574Y0328989D01*
X0040728Y0328942D01*
X0040881Y0328891D01*
X0041032Y0328836D01*
X0041182Y0328778D01*
X0041330Y0328716D01*
X0041477Y0328650D01*
X0041622Y0328581D01*
X0041765Y0328508D01*
X0041907Y0328432D01*
X0042046Y0328352D01*
X0042184Y0328269D01*
X0042319Y0328182D01*
X0042453Y0328092D01*
X0042584Y0327999D01*
X0042712Y0327903D01*
X0042838Y0327803D01*
X0042962Y0327700D01*
X0043083Y0327595D01*
X0043202Y0327486D01*
X0043318Y0327375D01*
X0043431Y0327260D01*
X0043541Y0327143D01*
X0043648Y0327023D01*
X0043752Y0326901D01*
X0043853Y0326776D01*
X0043951Y0326648D01*
X0044046Y0326518D01*
X0044138Y0326386D01*
X0044226Y0326252D01*
X0044311Y0326115D01*
X0044393Y0325977D01*
X0044471Y0325836D01*
X0044545Y0325694D01*
X0044616Y0325550D01*
X0044684Y0325404D01*
X0044747Y0325256D01*
X0044808Y0325107D01*
X0044864Y0324956D01*
X0044917Y0324804D01*
X0044966Y0324651D01*
X0045011Y0324497D01*
X0045052Y0324342D01*
X0045090Y0324185D01*
X0045123Y0324028D01*
X0045153Y0323870D01*
X0045179Y0323711D01*
X0045200Y0323552D01*
X0045218Y0323392D01*
X0045232Y0323232D01*
X0045242Y0323071D01*
X0045248Y0322911D01*
X0045250Y0322750D01*
X0045248Y0322589D01*
X0045242Y0322429D01*
X0045232Y0322268D01*
X0045218Y0322108D01*
X0045200Y0321948D01*
X0045179Y0321789D01*
X0045153Y0321630D01*
X0045123Y0321472D01*
X0045090Y0321315D01*
X0045052Y0321158D01*
X0045011Y0321003D01*
X0044966Y0320849D01*
X0044917Y0320696D01*
X0044864Y0320544D01*
X0044808Y0320393D01*
X0044747Y0320244D01*
X0044684Y0320096D01*
X0044616Y0319950D01*
X0044545Y0319806D01*
X0044471Y0319664D01*
X0044393Y0319523D01*
X0044311Y0319385D01*
X0044226Y0319248D01*
X0044138Y0319114D01*
X0044046Y0318982D01*
X0043951Y0318852D01*
X0043853Y0318724D01*
X0043752Y0318599D01*
X0043648Y0318477D01*
X0043541Y0318357D01*
X0043431Y0318240D01*
X0043318Y0318125D01*
X0043202Y0318014D01*
X0043083Y0317905D01*
X0042962Y0317800D01*
X0042838Y0317697D01*
X0042712Y0317597D01*
X0042584Y0317501D01*
X0042453Y0317408D01*
X0042319Y0317318D01*
X0042184Y0317231D01*
X0042046Y0317148D01*
X0041907Y0317068D01*
X0041765Y0316992D01*
X0041622Y0316919D01*
X0041477Y0316850D01*
X0041330Y0316784D01*
X0041182Y0316722D01*
X0041032Y0316664D01*
X0040881Y0316609D01*
X0040728Y0316558D01*
X0040574Y0316511D01*
X0040419Y0316468D01*
X0040263Y0316429D01*
X0040107Y0316393D01*
X0039949Y0316362D01*
X0039791Y0316334D01*
X0039632Y0316310D01*
X0039472Y0316290D01*
X0039312Y0316274D01*
X0039152Y0316262D01*
X0038991Y0316254D01*
X0038830Y0316250D01*
X0038670Y0316250D01*
X0038509Y0316254D01*
X0038348Y0316262D01*
X0038188Y0316274D01*
X0038028Y0316290D01*
X0037868Y0316310D01*
X0037709Y0316334D01*
X0037551Y0316362D01*
X0037393Y0316393D01*
X0037237Y0316429D01*
X0037081Y0316468D01*
X0036926Y0316511D01*
X0036772Y0316558D01*
X0036619Y0316609D01*
X0036468Y0316664D01*
X0036318Y0316722D01*
X0036170Y0316784D01*
X0036023Y0316850D01*
X0035878Y0316919D01*
X0035735Y0316992D01*
X0035593Y0317068D01*
X0035454Y0317148D01*
X0035316Y0317231D01*
X0035181Y0317318D01*
X0035047Y0317408D01*
X0034916Y0317501D01*
X0034788Y0317597D01*
X0034662Y0317697D01*
X0034538Y0317800D01*
X0034417Y0317905D01*
X0034298Y0318014D01*
X0034182Y0318125D01*
X0034069Y0318240D01*
X0033959Y0318357D01*
X0033852Y0318477D01*
X0033748Y0318599D01*
X0033647Y0318724D01*
X0033549Y0318852D01*
X0033454Y0318982D01*
X0033362Y0319114D01*
X0033274Y0319248D01*
X0033189Y0319385D01*
X0033107Y0319523D01*
X0033029Y0319664D01*
X0032955Y0319806D01*
X0032884Y0319950D01*
X0032816Y0320096D01*
X0032753Y0320244D01*
X0032692Y0320393D01*
X0032636Y0320544D01*
X0032583Y0320696D01*
X0032534Y0320849D01*
X0032489Y0321003D01*
X0032448Y0321158D01*
X0032410Y0321315D01*
X0032377Y0321472D01*
X0032347Y0321630D01*
X0032321Y0321789D01*
X0032300Y0321948D01*
X0032282Y0322108D01*
X0032268Y0322268D01*
X0032258Y0322429D01*
X0032252Y0322589D01*
X0032250Y0322750D01*
X0032250Y0220750D02*
X0032252Y0220911D01*
X0032258Y0221071D01*
X0032268Y0221232D01*
X0032282Y0221392D01*
X0032300Y0221552D01*
X0032321Y0221711D01*
X0032347Y0221870D01*
X0032377Y0222028D01*
X0032410Y0222185D01*
X0032448Y0222342D01*
X0032489Y0222497D01*
X0032534Y0222651D01*
X0032583Y0222804D01*
X0032636Y0222956D01*
X0032692Y0223107D01*
X0032753Y0223256D01*
X0032816Y0223404D01*
X0032884Y0223550D01*
X0032955Y0223694D01*
X0033029Y0223836D01*
X0033107Y0223977D01*
X0033189Y0224115D01*
X0033274Y0224252D01*
X0033362Y0224386D01*
X0033454Y0224518D01*
X0033549Y0224648D01*
X0033647Y0224776D01*
X0033748Y0224901D01*
X0033852Y0225023D01*
X0033959Y0225143D01*
X0034069Y0225260D01*
X0034182Y0225375D01*
X0034298Y0225486D01*
X0034417Y0225595D01*
X0034538Y0225700D01*
X0034662Y0225803D01*
X0034788Y0225903D01*
X0034916Y0225999D01*
X0035047Y0226092D01*
X0035181Y0226182D01*
X0035316Y0226269D01*
X0035454Y0226352D01*
X0035593Y0226432D01*
X0035735Y0226508D01*
X0035878Y0226581D01*
X0036023Y0226650D01*
X0036170Y0226716D01*
X0036318Y0226778D01*
X0036468Y0226836D01*
X0036619Y0226891D01*
X0036772Y0226942D01*
X0036926Y0226989D01*
X0037081Y0227032D01*
X0037237Y0227071D01*
X0037393Y0227107D01*
X0037551Y0227138D01*
X0037709Y0227166D01*
X0037868Y0227190D01*
X0038028Y0227210D01*
X0038188Y0227226D01*
X0038348Y0227238D01*
X0038509Y0227246D01*
X0038670Y0227250D01*
X0038830Y0227250D01*
X0038991Y0227246D01*
X0039152Y0227238D01*
X0039312Y0227226D01*
X0039472Y0227210D01*
X0039632Y0227190D01*
X0039791Y0227166D01*
X0039949Y0227138D01*
X0040107Y0227107D01*
X0040263Y0227071D01*
X0040419Y0227032D01*
X0040574Y0226989D01*
X0040728Y0226942D01*
X0040881Y0226891D01*
X0041032Y0226836D01*
X0041182Y0226778D01*
X0041330Y0226716D01*
X0041477Y0226650D01*
X0041622Y0226581D01*
X0041765Y0226508D01*
X0041907Y0226432D01*
X0042046Y0226352D01*
X0042184Y0226269D01*
X0042319Y0226182D01*
X0042453Y0226092D01*
X0042584Y0225999D01*
X0042712Y0225903D01*
X0042838Y0225803D01*
X0042962Y0225700D01*
X0043083Y0225595D01*
X0043202Y0225486D01*
X0043318Y0225375D01*
X0043431Y0225260D01*
X0043541Y0225143D01*
X0043648Y0225023D01*
X0043752Y0224901D01*
X0043853Y0224776D01*
X0043951Y0224648D01*
X0044046Y0224518D01*
X0044138Y0224386D01*
X0044226Y0224252D01*
X0044311Y0224115D01*
X0044393Y0223977D01*
X0044471Y0223836D01*
X0044545Y0223694D01*
X0044616Y0223550D01*
X0044684Y0223404D01*
X0044747Y0223256D01*
X0044808Y0223107D01*
X0044864Y0222956D01*
X0044917Y0222804D01*
X0044966Y0222651D01*
X0045011Y0222497D01*
X0045052Y0222342D01*
X0045090Y0222185D01*
X0045123Y0222028D01*
X0045153Y0221870D01*
X0045179Y0221711D01*
X0045200Y0221552D01*
X0045218Y0221392D01*
X0045232Y0221232D01*
X0045242Y0221071D01*
X0045248Y0220911D01*
X0045250Y0220750D01*
X0045248Y0220589D01*
X0045242Y0220429D01*
X0045232Y0220268D01*
X0045218Y0220108D01*
X0045200Y0219948D01*
X0045179Y0219789D01*
X0045153Y0219630D01*
X0045123Y0219472D01*
X0045090Y0219315D01*
X0045052Y0219158D01*
X0045011Y0219003D01*
X0044966Y0218849D01*
X0044917Y0218696D01*
X0044864Y0218544D01*
X0044808Y0218393D01*
X0044747Y0218244D01*
X0044684Y0218096D01*
X0044616Y0217950D01*
X0044545Y0217806D01*
X0044471Y0217664D01*
X0044393Y0217523D01*
X0044311Y0217385D01*
X0044226Y0217248D01*
X0044138Y0217114D01*
X0044046Y0216982D01*
X0043951Y0216852D01*
X0043853Y0216724D01*
X0043752Y0216599D01*
X0043648Y0216477D01*
X0043541Y0216357D01*
X0043431Y0216240D01*
X0043318Y0216125D01*
X0043202Y0216014D01*
X0043083Y0215905D01*
X0042962Y0215800D01*
X0042838Y0215697D01*
X0042712Y0215597D01*
X0042584Y0215501D01*
X0042453Y0215408D01*
X0042319Y0215318D01*
X0042184Y0215231D01*
X0042046Y0215148D01*
X0041907Y0215068D01*
X0041765Y0214992D01*
X0041622Y0214919D01*
X0041477Y0214850D01*
X0041330Y0214784D01*
X0041182Y0214722D01*
X0041032Y0214664D01*
X0040881Y0214609D01*
X0040728Y0214558D01*
X0040574Y0214511D01*
X0040419Y0214468D01*
X0040263Y0214429D01*
X0040107Y0214393D01*
X0039949Y0214362D01*
X0039791Y0214334D01*
X0039632Y0214310D01*
X0039472Y0214290D01*
X0039312Y0214274D01*
X0039152Y0214262D01*
X0038991Y0214254D01*
X0038830Y0214250D01*
X0038670Y0214250D01*
X0038509Y0214254D01*
X0038348Y0214262D01*
X0038188Y0214274D01*
X0038028Y0214290D01*
X0037868Y0214310D01*
X0037709Y0214334D01*
X0037551Y0214362D01*
X0037393Y0214393D01*
X0037237Y0214429D01*
X0037081Y0214468D01*
X0036926Y0214511D01*
X0036772Y0214558D01*
X0036619Y0214609D01*
X0036468Y0214664D01*
X0036318Y0214722D01*
X0036170Y0214784D01*
X0036023Y0214850D01*
X0035878Y0214919D01*
X0035735Y0214992D01*
X0035593Y0215068D01*
X0035454Y0215148D01*
X0035316Y0215231D01*
X0035181Y0215318D01*
X0035047Y0215408D01*
X0034916Y0215501D01*
X0034788Y0215597D01*
X0034662Y0215697D01*
X0034538Y0215800D01*
X0034417Y0215905D01*
X0034298Y0216014D01*
X0034182Y0216125D01*
X0034069Y0216240D01*
X0033959Y0216357D01*
X0033852Y0216477D01*
X0033748Y0216599D01*
X0033647Y0216724D01*
X0033549Y0216852D01*
X0033454Y0216982D01*
X0033362Y0217114D01*
X0033274Y0217248D01*
X0033189Y0217385D01*
X0033107Y0217523D01*
X0033029Y0217664D01*
X0032955Y0217806D01*
X0032884Y0217950D01*
X0032816Y0218096D01*
X0032753Y0218244D01*
X0032692Y0218393D01*
X0032636Y0218544D01*
X0032583Y0218696D01*
X0032534Y0218849D01*
X0032489Y0219003D01*
X0032448Y0219158D01*
X0032410Y0219315D01*
X0032377Y0219472D01*
X0032347Y0219630D01*
X0032321Y0219789D01*
X0032300Y0219948D01*
X0032282Y0220108D01*
X0032268Y0220268D01*
X0032258Y0220429D01*
X0032252Y0220589D01*
X0032250Y0220750D01*
X0112250Y0220750D02*
X0112252Y0220911D01*
X0112258Y0221071D01*
X0112268Y0221232D01*
X0112282Y0221392D01*
X0112300Y0221552D01*
X0112321Y0221711D01*
X0112347Y0221870D01*
X0112377Y0222028D01*
X0112410Y0222185D01*
X0112448Y0222342D01*
X0112489Y0222497D01*
X0112534Y0222651D01*
X0112583Y0222804D01*
X0112636Y0222956D01*
X0112692Y0223107D01*
X0112753Y0223256D01*
X0112816Y0223404D01*
X0112884Y0223550D01*
X0112955Y0223694D01*
X0113029Y0223836D01*
X0113107Y0223977D01*
X0113189Y0224115D01*
X0113274Y0224252D01*
X0113362Y0224386D01*
X0113454Y0224518D01*
X0113549Y0224648D01*
X0113647Y0224776D01*
X0113748Y0224901D01*
X0113852Y0225023D01*
X0113959Y0225143D01*
X0114069Y0225260D01*
X0114182Y0225375D01*
X0114298Y0225486D01*
X0114417Y0225595D01*
X0114538Y0225700D01*
X0114662Y0225803D01*
X0114788Y0225903D01*
X0114916Y0225999D01*
X0115047Y0226092D01*
X0115181Y0226182D01*
X0115316Y0226269D01*
X0115454Y0226352D01*
X0115593Y0226432D01*
X0115735Y0226508D01*
X0115878Y0226581D01*
X0116023Y0226650D01*
X0116170Y0226716D01*
X0116318Y0226778D01*
X0116468Y0226836D01*
X0116619Y0226891D01*
X0116772Y0226942D01*
X0116926Y0226989D01*
X0117081Y0227032D01*
X0117237Y0227071D01*
X0117393Y0227107D01*
X0117551Y0227138D01*
X0117709Y0227166D01*
X0117868Y0227190D01*
X0118028Y0227210D01*
X0118188Y0227226D01*
X0118348Y0227238D01*
X0118509Y0227246D01*
X0118670Y0227250D01*
X0118830Y0227250D01*
X0118991Y0227246D01*
X0119152Y0227238D01*
X0119312Y0227226D01*
X0119472Y0227210D01*
X0119632Y0227190D01*
X0119791Y0227166D01*
X0119949Y0227138D01*
X0120107Y0227107D01*
X0120263Y0227071D01*
X0120419Y0227032D01*
X0120574Y0226989D01*
X0120728Y0226942D01*
X0120881Y0226891D01*
X0121032Y0226836D01*
X0121182Y0226778D01*
X0121330Y0226716D01*
X0121477Y0226650D01*
X0121622Y0226581D01*
X0121765Y0226508D01*
X0121907Y0226432D01*
X0122046Y0226352D01*
X0122184Y0226269D01*
X0122319Y0226182D01*
X0122453Y0226092D01*
X0122584Y0225999D01*
X0122712Y0225903D01*
X0122838Y0225803D01*
X0122962Y0225700D01*
X0123083Y0225595D01*
X0123202Y0225486D01*
X0123318Y0225375D01*
X0123431Y0225260D01*
X0123541Y0225143D01*
X0123648Y0225023D01*
X0123752Y0224901D01*
X0123853Y0224776D01*
X0123951Y0224648D01*
X0124046Y0224518D01*
X0124138Y0224386D01*
X0124226Y0224252D01*
X0124311Y0224115D01*
X0124393Y0223977D01*
X0124471Y0223836D01*
X0124545Y0223694D01*
X0124616Y0223550D01*
X0124684Y0223404D01*
X0124747Y0223256D01*
X0124808Y0223107D01*
X0124864Y0222956D01*
X0124917Y0222804D01*
X0124966Y0222651D01*
X0125011Y0222497D01*
X0125052Y0222342D01*
X0125090Y0222185D01*
X0125123Y0222028D01*
X0125153Y0221870D01*
X0125179Y0221711D01*
X0125200Y0221552D01*
X0125218Y0221392D01*
X0125232Y0221232D01*
X0125242Y0221071D01*
X0125248Y0220911D01*
X0125250Y0220750D01*
X0125248Y0220589D01*
X0125242Y0220429D01*
X0125232Y0220268D01*
X0125218Y0220108D01*
X0125200Y0219948D01*
X0125179Y0219789D01*
X0125153Y0219630D01*
X0125123Y0219472D01*
X0125090Y0219315D01*
X0125052Y0219158D01*
X0125011Y0219003D01*
X0124966Y0218849D01*
X0124917Y0218696D01*
X0124864Y0218544D01*
X0124808Y0218393D01*
X0124747Y0218244D01*
X0124684Y0218096D01*
X0124616Y0217950D01*
X0124545Y0217806D01*
X0124471Y0217664D01*
X0124393Y0217523D01*
X0124311Y0217385D01*
X0124226Y0217248D01*
X0124138Y0217114D01*
X0124046Y0216982D01*
X0123951Y0216852D01*
X0123853Y0216724D01*
X0123752Y0216599D01*
X0123648Y0216477D01*
X0123541Y0216357D01*
X0123431Y0216240D01*
X0123318Y0216125D01*
X0123202Y0216014D01*
X0123083Y0215905D01*
X0122962Y0215800D01*
X0122838Y0215697D01*
X0122712Y0215597D01*
X0122584Y0215501D01*
X0122453Y0215408D01*
X0122319Y0215318D01*
X0122184Y0215231D01*
X0122046Y0215148D01*
X0121907Y0215068D01*
X0121765Y0214992D01*
X0121622Y0214919D01*
X0121477Y0214850D01*
X0121330Y0214784D01*
X0121182Y0214722D01*
X0121032Y0214664D01*
X0120881Y0214609D01*
X0120728Y0214558D01*
X0120574Y0214511D01*
X0120419Y0214468D01*
X0120263Y0214429D01*
X0120107Y0214393D01*
X0119949Y0214362D01*
X0119791Y0214334D01*
X0119632Y0214310D01*
X0119472Y0214290D01*
X0119312Y0214274D01*
X0119152Y0214262D01*
X0118991Y0214254D01*
X0118830Y0214250D01*
X0118670Y0214250D01*
X0118509Y0214254D01*
X0118348Y0214262D01*
X0118188Y0214274D01*
X0118028Y0214290D01*
X0117868Y0214310D01*
X0117709Y0214334D01*
X0117551Y0214362D01*
X0117393Y0214393D01*
X0117237Y0214429D01*
X0117081Y0214468D01*
X0116926Y0214511D01*
X0116772Y0214558D01*
X0116619Y0214609D01*
X0116468Y0214664D01*
X0116318Y0214722D01*
X0116170Y0214784D01*
X0116023Y0214850D01*
X0115878Y0214919D01*
X0115735Y0214992D01*
X0115593Y0215068D01*
X0115454Y0215148D01*
X0115316Y0215231D01*
X0115181Y0215318D01*
X0115047Y0215408D01*
X0114916Y0215501D01*
X0114788Y0215597D01*
X0114662Y0215697D01*
X0114538Y0215800D01*
X0114417Y0215905D01*
X0114298Y0216014D01*
X0114182Y0216125D01*
X0114069Y0216240D01*
X0113959Y0216357D01*
X0113852Y0216477D01*
X0113748Y0216599D01*
X0113647Y0216724D01*
X0113549Y0216852D01*
X0113454Y0216982D01*
X0113362Y0217114D01*
X0113274Y0217248D01*
X0113189Y0217385D01*
X0113107Y0217523D01*
X0113029Y0217664D01*
X0112955Y0217806D01*
X0112884Y0217950D01*
X0112816Y0218096D01*
X0112753Y0218244D01*
X0112692Y0218393D01*
X0112636Y0218544D01*
X0112583Y0218696D01*
X0112534Y0218849D01*
X0112489Y0219003D01*
X0112448Y0219158D01*
X0112410Y0219315D01*
X0112377Y0219472D01*
X0112347Y0219630D01*
X0112321Y0219789D01*
X0112300Y0219948D01*
X0112282Y0220108D01*
X0112268Y0220268D01*
X0112258Y0220429D01*
X0112252Y0220589D01*
X0112250Y0220750D01*
X0134250Y0220750D02*
X0134252Y0220911D01*
X0134258Y0221071D01*
X0134268Y0221232D01*
X0134282Y0221392D01*
X0134300Y0221552D01*
X0134321Y0221711D01*
X0134347Y0221870D01*
X0134377Y0222028D01*
X0134410Y0222185D01*
X0134448Y0222342D01*
X0134489Y0222497D01*
X0134534Y0222651D01*
X0134583Y0222804D01*
X0134636Y0222956D01*
X0134692Y0223107D01*
X0134753Y0223256D01*
X0134816Y0223404D01*
X0134884Y0223550D01*
X0134955Y0223694D01*
X0135029Y0223836D01*
X0135107Y0223977D01*
X0135189Y0224115D01*
X0135274Y0224252D01*
X0135362Y0224386D01*
X0135454Y0224518D01*
X0135549Y0224648D01*
X0135647Y0224776D01*
X0135748Y0224901D01*
X0135852Y0225023D01*
X0135959Y0225143D01*
X0136069Y0225260D01*
X0136182Y0225375D01*
X0136298Y0225486D01*
X0136417Y0225595D01*
X0136538Y0225700D01*
X0136662Y0225803D01*
X0136788Y0225903D01*
X0136916Y0225999D01*
X0137047Y0226092D01*
X0137181Y0226182D01*
X0137316Y0226269D01*
X0137454Y0226352D01*
X0137593Y0226432D01*
X0137735Y0226508D01*
X0137878Y0226581D01*
X0138023Y0226650D01*
X0138170Y0226716D01*
X0138318Y0226778D01*
X0138468Y0226836D01*
X0138619Y0226891D01*
X0138772Y0226942D01*
X0138926Y0226989D01*
X0139081Y0227032D01*
X0139237Y0227071D01*
X0139393Y0227107D01*
X0139551Y0227138D01*
X0139709Y0227166D01*
X0139868Y0227190D01*
X0140028Y0227210D01*
X0140188Y0227226D01*
X0140348Y0227238D01*
X0140509Y0227246D01*
X0140670Y0227250D01*
X0140830Y0227250D01*
X0140991Y0227246D01*
X0141152Y0227238D01*
X0141312Y0227226D01*
X0141472Y0227210D01*
X0141632Y0227190D01*
X0141791Y0227166D01*
X0141949Y0227138D01*
X0142107Y0227107D01*
X0142263Y0227071D01*
X0142419Y0227032D01*
X0142574Y0226989D01*
X0142728Y0226942D01*
X0142881Y0226891D01*
X0143032Y0226836D01*
X0143182Y0226778D01*
X0143330Y0226716D01*
X0143477Y0226650D01*
X0143622Y0226581D01*
X0143765Y0226508D01*
X0143907Y0226432D01*
X0144046Y0226352D01*
X0144184Y0226269D01*
X0144319Y0226182D01*
X0144453Y0226092D01*
X0144584Y0225999D01*
X0144712Y0225903D01*
X0144838Y0225803D01*
X0144962Y0225700D01*
X0145083Y0225595D01*
X0145202Y0225486D01*
X0145318Y0225375D01*
X0145431Y0225260D01*
X0145541Y0225143D01*
X0145648Y0225023D01*
X0145752Y0224901D01*
X0145853Y0224776D01*
X0145951Y0224648D01*
X0146046Y0224518D01*
X0146138Y0224386D01*
X0146226Y0224252D01*
X0146311Y0224115D01*
X0146393Y0223977D01*
X0146471Y0223836D01*
X0146545Y0223694D01*
X0146616Y0223550D01*
X0146684Y0223404D01*
X0146747Y0223256D01*
X0146808Y0223107D01*
X0146864Y0222956D01*
X0146917Y0222804D01*
X0146966Y0222651D01*
X0147011Y0222497D01*
X0147052Y0222342D01*
X0147090Y0222185D01*
X0147123Y0222028D01*
X0147153Y0221870D01*
X0147179Y0221711D01*
X0147200Y0221552D01*
X0147218Y0221392D01*
X0147232Y0221232D01*
X0147242Y0221071D01*
X0147248Y0220911D01*
X0147250Y0220750D01*
X0147248Y0220589D01*
X0147242Y0220429D01*
X0147232Y0220268D01*
X0147218Y0220108D01*
X0147200Y0219948D01*
X0147179Y0219789D01*
X0147153Y0219630D01*
X0147123Y0219472D01*
X0147090Y0219315D01*
X0147052Y0219158D01*
X0147011Y0219003D01*
X0146966Y0218849D01*
X0146917Y0218696D01*
X0146864Y0218544D01*
X0146808Y0218393D01*
X0146747Y0218244D01*
X0146684Y0218096D01*
X0146616Y0217950D01*
X0146545Y0217806D01*
X0146471Y0217664D01*
X0146393Y0217523D01*
X0146311Y0217385D01*
X0146226Y0217248D01*
X0146138Y0217114D01*
X0146046Y0216982D01*
X0145951Y0216852D01*
X0145853Y0216724D01*
X0145752Y0216599D01*
X0145648Y0216477D01*
X0145541Y0216357D01*
X0145431Y0216240D01*
X0145318Y0216125D01*
X0145202Y0216014D01*
X0145083Y0215905D01*
X0144962Y0215800D01*
X0144838Y0215697D01*
X0144712Y0215597D01*
X0144584Y0215501D01*
X0144453Y0215408D01*
X0144319Y0215318D01*
X0144184Y0215231D01*
X0144046Y0215148D01*
X0143907Y0215068D01*
X0143765Y0214992D01*
X0143622Y0214919D01*
X0143477Y0214850D01*
X0143330Y0214784D01*
X0143182Y0214722D01*
X0143032Y0214664D01*
X0142881Y0214609D01*
X0142728Y0214558D01*
X0142574Y0214511D01*
X0142419Y0214468D01*
X0142263Y0214429D01*
X0142107Y0214393D01*
X0141949Y0214362D01*
X0141791Y0214334D01*
X0141632Y0214310D01*
X0141472Y0214290D01*
X0141312Y0214274D01*
X0141152Y0214262D01*
X0140991Y0214254D01*
X0140830Y0214250D01*
X0140670Y0214250D01*
X0140509Y0214254D01*
X0140348Y0214262D01*
X0140188Y0214274D01*
X0140028Y0214290D01*
X0139868Y0214310D01*
X0139709Y0214334D01*
X0139551Y0214362D01*
X0139393Y0214393D01*
X0139237Y0214429D01*
X0139081Y0214468D01*
X0138926Y0214511D01*
X0138772Y0214558D01*
X0138619Y0214609D01*
X0138468Y0214664D01*
X0138318Y0214722D01*
X0138170Y0214784D01*
X0138023Y0214850D01*
X0137878Y0214919D01*
X0137735Y0214992D01*
X0137593Y0215068D01*
X0137454Y0215148D01*
X0137316Y0215231D01*
X0137181Y0215318D01*
X0137047Y0215408D01*
X0136916Y0215501D01*
X0136788Y0215597D01*
X0136662Y0215697D01*
X0136538Y0215800D01*
X0136417Y0215905D01*
X0136298Y0216014D01*
X0136182Y0216125D01*
X0136069Y0216240D01*
X0135959Y0216357D01*
X0135852Y0216477D01*
X0135748Y0216599D01*
X0135647Y0216724D01*
X0135549Y0216852D01*
X0135454Y0216982D01*
X0135362Y0217114D01*
X0135274Y0217248D01*
X0135189Y0217385D01*
X0135107Y0217523D01*
X0135029Y0217664D01*
X0134955Y0217806D01*
X0134884Y0217950D01*
X0134816Y0218096D01*
X0134753Y0218244D01*
X0134692Y0218393D01*
X0134636Y0218544D01*
X0134583Y0218696D01*
X0134534Y0218849D01*
X0134489Y0219003D01*
X0134448Y0219158D01*
X0134410Y0219315D01*
X0134377Y0219472D01*
X0134347Y0219630D01*
X0134321Y0219789D01*
X0134300Y0219948D01*
X0134282Y0220108D01*
X0134268Y0220268D01*
X0134258Y0220429D01*
X0134252Y0220589D01*
X0134250Y0220750D01*
X0214250Y0220750D02*
X0214252Y0220911D01*
X0214258Y0221071D01*
X0214268Y0221232D01*
X0214282Y0221392D01*
X0214300Y0221552D01*
X0214321Y0221711D01*
X0214347Y0221870D01*
X0214377Y0222028D01*
X0214410Y0222185D01*
X0214448Y0222342D01*
X0214489Y0222497D01*
X0214534Y0222651D01*
X0214583Y0222804D01*
X0214636Y0222956D01*
X0214692Y0223107D01*
X0214753Y0223256D01*
X0214816Y0223404D01*
X0214884Y0223550D01*
X0214955Y0223694D01*
X0215029Y0223836D01*
X0215107Y0223977D01*
X0215189Y0224115D01*
X0215274Y0224252D01*
X0215362Y0224386D01*
X0215454Y0224518D01*
X0215549Y0224648D01*
X0215647Y0224776D01*
X0215748Y0224901D01*
X0215852Y0225023D01*
X0215959Y0225143D01*
X0216069Y0225260D01*
X0216182Y0225375D01*
X0216298Y0225486D01*
X0216417Y0225595D01*
X0216538Y0225700D01*
X0216662Y0225803D01*
X0216788Y0225903D01*
X0216916Y0225999D01*
X0217047Y0226092D01*
X0217181Y0226182D01*
X0217316Y0226269D01*
X0217454Y0226352D01*
X0217593Y0226432D01*
X0217735Y0226508D01*
X0217878Y0226581D01*
X0218023Y0226650D01*
X0218170Y0226716D01*
X0218318Y0226778D01*
X0218468Y0226836D01*
X0218619Y0226891D01*
X0218772Y0226942D01*
X0218926Y0226989D01*
X0219081Y0227032D01*
X0219237Y0227071D01*
X0219393Y0227107D01*
X0219551Y0227138D01*
X0219709Y0227166D01*
X0219868Y0227190D01*
X0220028Y0227210D01*
X0220188Y0227226D01*
X0220348Y0227238D01*
X0220509Y0227246D01*
X0220670Y0227250D01*
X0220830Y0227250D01*
X0220991Y0227246D01*
X0221152Y0227238D01*
X0221312Y0227226D01*
X0221472Y0227210D01*
X0221632Y0227190D01*
X0221791Y0227166D01*
X0221949Y0227138D01*
X0222107Y0227107D01*
X0222263Y0227071D01*
X0222419Y0227032D01*
X0222574Y0226989D01*
X0222728Y0226942D01*
X0222881Y0226891D01*
X0223032Y0226836D01*
X0223182Y0226778D01*
X0223330Y0226716D01*
X0223477Y0226650D01*
X0223622Y0226581D01*
X0223765Y0226508D01*
X0223907Y0226432D01*
X0224046Y0226352D01*
X0224184Y0226269D01*
X0224319Y0226182D01*
X0224453Y0226092D01*
X0224584Y0225999D01*
X0224712Y0225903D01*
X0224838Y0225803D01*
X0224962Y0225700D01*
X0225083Y0225595D01*
X0225202Y0225486D01*
X0225318Y0225375D01*
X0225431Y0225260D01*
X0225541Y0225143D01*
X0225648Y0225023D01*
X0225752Y0224901D01*
X0225853Y0224776D01*
X0225951Y0224648D01*
X0226046Y0224518D01*
X0226138Y0224386D01*
X0226226Y0224252D01*
X0226311Y0224115D01*
X0226393Y0223977D01*
X0226471Y0223836D01*
X0226545Y0223694D01*
X0226616Y0223550D01*
X0226684Y0223404D01*
X0226747Y0223256D01*
X0226808Y0223107D01*
X0226864Y0222956D01*
X0226917Y0222804D01*
X0226966Y0222651D01*
X0227011Y0222497D01*
X0227052Y0222342D01*
X0227090Y0222185D01*
X0227123Y0222028D01*
X0227153Y0221870D01*
X0227179Y0221711D01*
X0227200Y0221552D01*
X0227218Y0221392D01*
X0227232Y0221232D01*
X0227242Y0221071D01*
X0227248Y0220911D01*
X0227250Y0220750D01*
X0227248Y0220589D01*
X0227242Y0220429D01*
X0227232Y0220268D01*
X0227218Y0220108D01*
X0227200Y0219948D01*
X0227179Y0219789D01*
X0227153Y0219630D01*
X0227123Y0219472D01*
X0227090Y0219315D01*
X0227052Y0219158D01*
X0227011Y0219003D01*
X0226966Y0218849D01*
X0226917Y0218696D01*
X0226864Y0218544D01*
X0226808Y0218393D01*
X0226747Y0218244D01*
X0226684Y0218096D01*
X0226616Y0217950D01*
X0226545Y0217806D01*
X0226471Y0217664D01*
X0226393Y0217523D01*
X0226311Y0217385D01*
X0226226Y0217248D01*
X0226138Y0217114D01*
X0226046Y0216982D01*
X0225951Y0216852D01*
X0225853Y0216724D01*
X0225752Y0216599D01*
X0225648Y0216477D01*
X0225541Y0216357D01*
X0225431Y0216240D01*
X0225318Y0216125D01*
X0225202Y0216014D01*
X0225083Y0215905D01*
X0224962Y0215800D01*
X0224838Y0215697D01*
X0224712Y0215597D01*
X0224584Y0215501D01*
X0224453Y0215408D01*
X0224319Y0215318D01*
X0224184Y0215231D01*
X0224046Y0215148D01*
X0223907Y0215068D01*
X0223765Y0214992D01*
X0223622Y0214919D01*
X0223477Y0214850D01*
X0223330Y0214784D01*
X0223182Y0214722D01*
X0223032Y0214664D01*
X0222881Y0214609D01*
X0222728Y0214558D01*
X0222574Y0214511D01*
X0222419Y0214468D01*
X0222263Y0214429D01*
X0222107Y0214393D01*
X0221949Y0214362D01*
X0221791Y0214334D01*
X0221632Y0214310D01*
X0221472Y0214290D01*
X0221312Y0214274D01*
X0221152Y0214262D01*
X0220991Y0214254D01*
X0220830Y0214250D01*
X0220670Y0214250D01*
X0220509Y0214254D01*
X0220348Y0214262D01*
X0220188Y0214274D01*
X0220028Y0214290D01*
X0219868Y0214310D01*
X0219709Y0214334D01*
X0219551Y0214362D01*
X0219393Y0214393D01*
X0219237Y0214429D01*
X0219081Y0214468D01*
X0218926Y0214511D01*
X0218772Y0214558D01*
X0218619Y0214609D01*
X0218468Y0214664D01*
X0218318Y0214722D01*
X0218170Y0214784D01*
X0218023Y0214850D01*
X0217878Y0214919D01*
X0217735Y0214992D01*
X0217593Y0215068D01*
X0217454Y0215148D01*
X0217316Y0215231D01*
X0217181Y0215318D01*
X0217047Y0215408D01*
X0216916Y0215501D01*
X0216788Y0215597D01*
X0216662Y0215697D01*
X0216538Y0215800D01*
X0216417Y0215905D01*
X0216298Y0216014D01*
X0216182Y0216125D01*
X0216069Y0216240D01*
X0215959Y0216357D01*
X0215852Y0216477D01*
X0215748Y0216599D01*
X0215647Y0216724D01*
X0215549Y0216852D01*
X0215454Y0216982D01*
X0215362Y0217114D01*
X0215274Y0217248D01*
X0215189Y0217385D01*
X0215107Y0217523D01*
X0215029Y0217664D01*
X0214955Y0217806D01*
X0214884Y0217950D01*
X0214816Y0218096D01*
X0214753Y0218244D01*
X0214692Y0218393D01*
X0214636Y0218544D01*
X0214583Y0218696D01*
X0214534Y0218849D01*
X0214489Y0219003D01*
X0214448Y0219158D01*
X0214410Y0219315D01*
X0214377Y0219472D01*
X0214347Y0219630D01*
X0214321Y0219789D01*
X0214300Y0219948D01*
X0214282Y0220108D01*
X0214268Y0220268D01*
X0214258Y0220429D01*
X0214252Y0220589D01*
X0214250Y0220750D01*
X0236250Y0220750D02*
X0236252Y0220911D01*
X0236258Y0221071D01*
X0236268Y0221232D01*
X0236282Y0221392D01*
X0236300Y0221552D01*
X0236321Y0221711D01*
X0236347Y0221870D01*
X0236377Y0222028D01*
X0236410Y0222185D01*
X0236448Y0222342D01*
X0236489Y0222497D01*
X0236534Y0222651D01*
X0236583Y0222804D01*
X0236636Y0222956D01*
X0236692Y0223107D01*
X0236753Y0223256D01*
X0236816Y0223404D01*
X0236884Y0223550D01*
X0236955Y0223694D01*
X0237029Y0223836D01*
X0237107Y0223977D01*
X0237189Y0224115D01*
X0237274Y0224252D01*
X0237362Y0224386D01*
X0237454Y0224518D01*
X0237549Y0224648D01*
X0237647Y0224776D01*
X0237748Y0224901D01*
X0237852Y0225023D01*
X0237959Y0225143D01*
X0238069Y0225260D01*
X0238182Y0225375D01*
X0238298Y0225486D01*
X0238417Y0225595D01*
X0238538Y0225700D01*
X0238662Y0225803D01*
X0238788Y0225903D01*
X0238916Y0225999D01*
X0239047Y0226092D01*
X0239181Y0226182D01*
X0239316Y0226269D01*
X0239454Y0226352D01*
X0239593Y0226432D01*
X0239735Y0226508D01*
X0239878Y0226581D01*
X0240023Y0226650D01*
X0240170Y0226716D01*
X0240318Y0226778D01*
X0240468Y0226836D01*
X0240619Y0226891D01*
X0240772Y0226942D01*
X0240926Y0226989D01*
X0241081Y0227032D01*
X0241237Y0227071D01*
X0241393Y0227107D01*
X0241551Y0227138D01*
X0241709Y0227166D01*
X0241868Y0227190D01*
X0242028Y0227210D01*
X0242188Y0227226D01*
X0242348Y0227238D01*
X0242509Y0227246D01*
X0242670Y0227250D01*
X0242830Y0227250D01*
X0242991Y0227246D01*
X0243152Y0227238D01*
X0243312Y0227226D01*
X0243472Y0227210D01*
X0243632Y0227190D01*
X0243791Y0227166D01*
X0243949Y0227138D01*
X0244107Y0227107D01*
X0244263Y0227071D01*
X0244419Y0227032D01*
X0244574Y0226989D01*
X0244728Y0226942D01*
X0244881Y0226891D01*
X0245032Y0226836D01*
X0245182Y0226778D01*
X0245330Y0226716D01*
X0245477Y0226650D01*
X0245622Y0226581D01*
X0245765Y0226508D01*
X0245907Y0226432D01*
X0246046Y0226352D01*
X0246184Y0226269D01*
X0246319Y0226182D01*
X0246453Y0226092D01*
X0246584Y0225999D01*
X0246712Y0225903D01*
X0246838Y0225803D01*
X0246962Y0225700D01*
X0247083Y0225595D01*
X0247202Y0225486D01*
X0247318Y0225375D01*
X0247431Y0225260D01*
X0247541Y0225143D01*
X0247648Y0225023D01*
X0247752Y0224901D01*
X0247853Y0224776D01*
X0247951Y0224648D01*
X0248046Y0224518D01*
X0248138Y0224386D01*
X0248226Y0224252D01*
X0248311Y0224115D01*
X0248393Y0223977D01*
X0248471Y0223836D01*
X0248545Y0223694D01*
X0248616Y0223550D01*
X0248684Y0223404D01*
X0248747Y0223256D01*
X0248808Y0223107D01*
X0248864Y0222956D01*
X0248917Y0222804D01*
X0248966Y0222651D01*
X0249011Y0222497D01*
X0249052Y0222342D01*
X0249090Y0222185D01*
X0249123Y0222028D01*
X0249153Y0221870D01*
X0249179Y0221711D01*
X0249200Y0221552D01*
X0249218Y0221392D01*
X0249232Y0221232D01*
X0249242Y0221071D01*
X0249248Y0220911D01*
X0249250Y0220750D01*
X0249248Y0220589D01*
X0249242Y0220429D01*
X0249232Y0220268D01*
X0249218Y0220108D01*
X0249200Y0219948D01*
X0249179Y0219789D01*
X0249153Y0219630D01*
X0249123Y0219472D01*
X0249090Y0219315D01*
X0249052Y0219158D01*
X0249011Y0219003D01*
X0248966Y0218849D01*
X0248917Y0218696D01*
X0248864Y0218544D01*
X0248808Y0218393D01*
X0248747Y0218244D01*
X0248684Y0218096D01*
X0248616Y0217950D01*
X0248545Y0217806D01*
X0248471Y0217664D01*
X0248393Y0217523D01*
X0248311Y0217385D01*
X0248226Y0217248D01*
X0248138Y0217114D01*
X0248046Y0216982D01*
X0247951Y0216852D01*
X0247853Y0216724D01*
X0247752Y0216599D01*
X0247648Y0216477D01*
X0247541Y0216357D01*
X0247431Y0216240D01*
X0247318Y0216125D01*
X0247202Y0216014D01*
X0247083Y0215905D01*
X0246962Y0215800D01*
X0246838Y0215697D01*
X0246712Y0215597D01*
X0246584Y0215501D01*
X0246453Y0215408D01*
X0246319Y0215318D01*
X0246184Y0215231D01*
X0246046Y0215148D01*
X0245907Y0215068D01*
X0245765Y0214992D01*
X0245622Y0214919D01*
X0245477Y0214850D01*
X0245330Y0214784D01*
X0245182Y0214722D01*
X0245032Y0214664D01*
X0244881Y0214609D01*
X0244728Y0214558D01*
X0244574Y0214511D01*
X0244419Y0214468D01*
X0244263Y0214429D01*
X0244107Y0214393D01*
X0243949Y0214362D01*
X0243791Y0214334D01*
X0243632Y0214310D01*
X0243472Y0214290D01*
X0243312Y0214274D01*
X0243152Y0214262D01*
X0242991Y0214254D01*
X0242830Y0214250D01*
X0242670Y0214250D01*
X0242509Y0214254D01*
X0242348Y0214262D01*
X0242188Y0214274D01*
X0242028Y0214290D01*
X0241868Y0214310D01*
X0241709Y0214334D01*
X0241551Y0214362D01*
X0241393Y0214393D01*
X0241237Y0214429D01*
X0241081Y0214468D01*
X0240926Y0214511D01*
X0240772Y0214558D01*
X0240619Y0214609D01*
X0240468Y0214664D01*
X0240318Y0214722D01*
X0240170Y0214784D01*
X0240023Y0214850D01*
X0239878Y0214919D01*
X0239735Y0214992D01*
X0239593Y0215068D01*
X0239454Y0215148D01*
X0239316Y0215231D01*
X0239181Y0215318D01*
X0239047Y0215408D01*
X0238916Y0215501D01*
X0238788Y0215597D01*
X0238662Y0215697D01*
X0238538Y0215800D01*
X0238417Y0215905D01*
X0238298Y0216014D01*
X0238182Y0216125D01*
X0238069Y0216240D01*
X0237959Y0216357D01*
X0237852Y0216477D01*
X0237748Y0216599D01*
X0237647Y0216724D01*
X0237549Y0216852D01*
X0237454Y0216982D01*
X0237362Y0217114D01*
X0237274Y0217248D01*
X0237189Y0217385D01*
X0237107Y0217523D01*
X0237029Y0217664D01*
X0236955Y0217806D01*
X0236884Y0217950D01*
X0236816Y0218096D01*
X0236753Y0218244D01*
X0236692Y0218393D01*
X0236636Y0218544D01*
X0236583Y0218696D01*
X0236534Y0218849D01*
X0236489Y0219003D01*
X0236448Y0219158D01*
X0236410Y0219315D01*
X0236377Y0219472D01*
X0236347Y0219630D01*
X0236321Y0219789D01*
X0236300Y0219948D01*
X0236282Y0220108D01*
X0236268Y0220268D01*
X0236258Y0220429D01*
X0236252Y0220589D01*
X0236250Y0220750D01*
X0316250Y0220750D02*
X0316252Y0220911D01*
X0316258Y0221071D01*
X0316268Y0221232D01*
X0316282Y0221392D01*
X0316300Y0221552D01*
X0316321Y0221711D01*
X0316347Y0221870D01*
X0316377Y0222028D01*
X0316410Y0222185D01*
X0316448Y0222342D01*
X0316489Y0222497D01*
X0316534Y0222651D01*
X0316583Y0222804D01*
X0316636Y0222956D01*
X0316692Y0223107D01*
X0316753Y0223256D01*
X0316816Y0223404D01*
X0316884Y0223550D01*
X0316955Y0223694D01*
X0317029Y0223836D01*
X0317107Y0223977D01*
X0317189Y0224115D01*
X0317274Y0224252D01*
X0317362Y0224386D01*
X0317454Y0224518D01*
X0317549Y0224648D01*
X0317647Y0224776D01*
X0317748Y0224901D01*
X0317852Y0225023D01*
X0317959Y0225143D01*
X0318069Y0225260D01*
X0318182Y0225375D01*
X0318298Y0225486D01*
X0318417Y0225595D01*
X0318538Y0225700D01*
X0318662Y0225803D01*
X0318788Y0225903D01*
X0318916Y0225999D01*
X0319047Y0226092D01*
X0319181Y0226182D01*
X0319316Y0226269D01*
X0319454Y0226352D01*
X0319593Y0226432D01*
X0319735Y0226508D01*
X0319878Y0226581D01*
X0320023Y0226650D01*
X0320170Y0226716D01*
X0320318Y0226778D01*
X0320468Y0226836D01*
X0320619Y0226891D01*
X0320772Y0226942D01*
X0320926Y0226989D01*
X0321081Y0227032D01*
X0321237Y0227071D01*
X0321393Y0227107D01*
X0321551Y0227138D01*
X0321709Y0227166D01*
X0321868Y0227190D01*
X0322028Y0227210D01*
X0322188Y0227226D01*
X0322348Y0227238D01*
X0322509Y0227246D01*
X0322670Y0227250D01*
X0322830Y0227250D01*
X0322991Y0227246D01*
X0323152Y0227238D01*
X0323312Y0227226D01*
X0323472Y0227210D01*
X0323632Y0227190D01*
X0323791Y0227166D01*
X0323949Y0227138D01*
X0324107Y0227107D01*
X0324263Y0227071D01*
X0324419Y0227032D01*
X0324574Y0226989D01*
X0324728Y0226942D01*
X0324881Y0226891D01*
X0325032Y0226836D01*
X0325182Y0226778D01*
X0325330Y0226716D01*
X0325477Y0226650D01*
X0325622Y0226581D01*
X0325765Y0226508D01*
X0325907Y0226432D01*
X0326046Y0226352D01*
X0326184Y0226269D01*
X0326319Y0226182D01*
X0326453Y0226092D01*
X0326584Y0225999D01*
X0326712Y0225903D01*
X0326838Y0225803D01*
X0326962Y0225700D01*
X0327083Y0225595D01*
X0327202Y0225486D01*
X0327318Y0225375D01*
X0327431Y0225260D01*
X0327541Y0225143D01*
X0327648Y0225023D01*
X0327752Y0224901D01*
X0327853Y0224776D01*
X0327951Y0224648D01*
X0328046Y0224518D01*
X0328138Y0224386D01*
X0328226Y0224252D01*
X0328311Y0224115D01*
X0328393Y0223977D01*
X0328471Y0223836D01*
X0328545Y0223694D01*
X0328616Y0223550D01*
X0328684Y0223404D01*
X0328747Y0223256D01*
X0328808Y0223107D01*
X0328864Y0222956D01*
X0328917Y0222804D01*
X0328966Y0222651D01*
X0329011Y0222497D01*
X0329052Y0222342D01*
X0329090Y0222185D01*
X0329123Y0222028D01*
X0329153Y0221870D01*
X0329179Y0221711D01*
X0329200Y0221552D01*
X0329218Y0221392D01*
X0329232Y0221232D01*
X0329242Y0221071D01*
X0329248Y0220911D01*
X0329250Y0220750D01*
X0329248Y0220589D01*
X0329242Y0220429D01*
X0329232Y0220268D01*
X0329218Y0220108D01*
X0329200Y0219948D01*
X0329179Y0219789D01*
X0329153Y0219630D01*
X0329123Y0219472D01*
X0329090Y0219315D01*
X0329052Y0219158D01*
X0329011Y0219003D01*
X0328966Y0218849D01*
X0328917Y0218696D01*
X0328864Y0218544D01*
X0328808Y0218393D01*
X0328747Y0218244D01*
X0328684Y0218096D01*
X0328616Y0217950D01*
X0328545Y0217806D01*
X0328471Y0217664D01*
X0328393Y0217523D01*
X0328311Y0217385D01*
X0328226Y0217248D01*
X0328138Y0217114D01*
X0328046Y0216982D01*
X0327951Y0216852D01*
X0327853Y0216724D01*
X0327752Y0216599D01*
X0327648Y0216477D01*
X0327541Y0216357D01*
X0327431Y0216240D01*
X0327318Y0216125D01*
X0327202Y0216014D01*
X0327083Y0215905D01*
X0326962Y0215800D01*
X0326838Y0215697D01*
X0326712Y0215597D01*
X0326584Y0215501D01*
X0326453Y0215408D01*
X0326319Y0215318D01*
X0326184Y0215231D01*
X0326046Y0215148D01*
X0325907Y0215068D01*
X0325765Y0214992D01*
X0325622Y0214919D01*
X0325477Y0214850D01*
X0325330Y0214784D01*
X0325182Y0214722D01*
X0325032Y0214664D01*
X0324881Y0214609D01*
X0324728Y0214558D01*
X0324574Y0214511D01*
X0324419Y0214468D01*
X0324263Y0214429D01*
X0324107Y0214393D01*
X0323949Y0214362D01*
X0323791Y0214334D01*
X0323632Y0214310D01*
X0323472Y0214290D01*
X0323312Y0214274D01*
X0323152Y0214262D01*
X0322991Y0214254D01*
X0322830Y0214250D01*
X0322670Y0214250D01*
X0322509Y0214254D01*
X0322348Y0214262D01*
X0322188Y0214274D01*
X0322028Y0214290D01*
X0321868Y0214310D01*
X0321709Y0214334D01*
X0321551Y0214362D01*
X0321393Y0214393D01*
X0321237Y0214429D01*
X0321081Y0214468D01*
X0320926Y0214511D01*
X0320772Y0214558D01*
X0320619Y0214609D01*
X0320468Y0214664D01*
X0320318Y0214722D01*
X0320170Y0214784D01*
X0320023Y0214850D01*
X0319878Y0214919D01*
X0319735Y0214992D01*
X0319593Y0215068D01*
X0319454Y0215148D01*
X0319316Y0215231D01*
X0319181Y0215318D01*
X0319047Y0215408D01*
X0318916Y0215501D01*
X0318788Y0215597D01*
X0318662Y0215697D01*
X0318538Y0215800D01*
X0318417Y0215905D01*
X0318298Y0216014D01*
X0318182Y0216125D01*
X0318069Y0216240D01*
X0317959Y0216357D01*
X0317852Y0216477D01*
X0317748Y0216599D01*
X0317647Y0216724D01*
X0317549Y0216852D01*
X0317454Y0216982D01*
X0317362Y0217114D01*
X0317274Y0217248D01*
X0317189Y0217385D01*
X0317107Y0217523D01*
X0317029Y0217664D01*
X0316955Y0217806D01*
X0316884Y0217950D01*
X0316816Y0218096D01*
X0316753Y0218244D01*
X0316692Y0218393D01*
X0316636Y0218544D01*
X0316583Y0218696D01*
X0316534Y0218849D01*
X0316489Y0219003D01*
X0316448Y0219158D01*
X0316410Y0219315D01*
X0316377Y0219472D01*
X0316347Y0219630D01*
X0316321Y0219789D01*
X0316300Y0219948D01*
X0316282Y0220108D01*
X0316268Y0220268D01*
X0316258Y0220429D01*
X0316252Y0220589D01*
X0316250Y0220750D01*
X0316250Y0118750D02*
X0316252Y0118911D01*
X0316258Y0119071D01*
X0316268Y0119232D01*
X0316282Y0119392D01*
X0316300Y0119552D01*
X0316321Y0119711D01*
X0316347Y0119870D01*
X0316377Y0120028D01*
X0316410Y0120185D01*
X0316448Y0120342D01*
X0316489Y0120497D01*
X0316534Y0120651D01*
X0316583Y0120804D01*
X0316636Y0120956D01*
X0316692Y0121107D01*
X0316753Y0121256D01*
X0316816Y0121404D01*
X0316884Y0121550D01*
X0316955Y0121694D01*
X0317029Y0121836D01*
X0317107Y0121977D01*
X0317189Y0122115D01*
X0317274Y0122252D01*
X0317362Y0122386D01*
X0317454Y0122518D01*
X0317549Y0122648D01*
X0317647Y0122776D01*
X0317748Y0122901D01*
X0317852Y0123023D01*
X0317959Y0123143D01*
X0318069Y0123260D01*
X0318182Y0123375D01*
X0318298Y0123486D01*
X0318417Y0123595D01*
X0318538Y0123700D01*
X0318662Y0123803D01*
X0318788Y0123903D01*
X0318916Y0123999D01*
X0319047Y0124092D01*
X0319181Y0124182D01*
X0319316Y0124269D01*
X0319454Y0124352D01*
X0319593Y0124432D01*
X0319735Y0124508D01*
X0319878Y0124581D01*
X0320023Y0124650D01*
X0320170Y0124716D01*
X0320318Y0124778D01*
X0320468Y0124836D01*
X0320619Y0124891D01*
X0320772Y0124942D01*
X0320926Y0124989D01*
X0321081Y0125032D01*
X0321237Y0125071D01*
X0321393Y0125107D01*
X0321551Y0125138D01*
X0321709Y0125166D01*
X0321868Y0125190D01*
X0322028Y0125210D01*
X0322188Y0125226D01*
X0322348Y0125238D01*
X0322509Y0125246D01*
X0322670Y0125250D01*
X0322830Y0125250D01*
X0322991Y0125246D01*
X0323152Y0125238D01*
X0323312Y0125226D01*
X0323472Y0125210D01*
X0323632Y0125190D01*
X0323791Y0125166D01*
X0323949Y0125138D01*
X0324107Y0125107D01*
X0324263Y0125071D01*
X0324419Y0125032D01*
X0324574Y0124989D01*
X0324728Y0124942D01*
X0324881Y0124891D01*
X0325032Y0124836D01*
X0325182Y0124778D01*
X0325330Y0124716D01*
X0325477Y0124650D01*
X0325622Y0124581D01*
X0325765Y0124508D01*
X0325907Y0124432D01*
X0326046Y0124352D01*
X0326184Y0124269D01*
X0326319Y0124182D01*
X0326453Y0124092D01*
X0326584Y0123999D01*
X0326712Y0123903D01*
X0326838Y0123803D01*
X0326962Y0123700D01*
X0327083Y0123595D01*
X0327202Y0123486D01*
X0327318Y0123375D01*
X0327431Y0123260D01*
X0327541Y0123143D01*
X0327648Y0123023D01*
X0327752Y0122901D01*
X0327853Y0122776D01*
X0327951Y0122648D01*
X0328046Y0122518D01*
X0328138Y0122386D01*
X0328226Y0122252D01*
X0328311Y0122115D01*
X0328393Y0121977D01*
X0328471Y0121836D01*
X0328545Y0121694D01*
X0328616Y0121550D01*
X0328684Y0121404D01*
X0328747Y0121256D01*
X0328808Y0121107D01*
X0328864Y0120956D01*
X0328917Y0120804D01*
X0328966Y0120651D01*
X0329011Y0120497D01*
X0329052Y0120342D01*
X0329090Y0120185D01*
X0329123Y0120028D01*
X0329153Y0119870D01*
X0329179Y0119711D01*
X0329200Y0119552D01*
X0329218Y0119392D01*
X0329232Y0119232D01*
X0329242Y0119071D01*
X0329248Y0118911D01*
X0329250Y0118750D01*
X0329248Y0118589D01*
X0329242Y0118429D01*
X0329232Y0118268D01*
X0329218Y0118108D01*
X0329200Y0117948D01*
X0329179Y0117789D01*
X0329153Y0117630D01*
X0329123Y0117472D01*
X0329090Y0117315D01*
X0329052Y0117158D01*
X0329011Y0117003D01*
X0328966Y0116849D01*
X0328917Y0116696D01*
X0328864Y0116544D01*
X0328808Y0116393D01*
X0328747Y0116244D01*
X0328684Y0116096D01*
X0328616Y0115950D01*
X0328545Y0115806D01*
X0328471Y0115664D01*
X0328393Y0115523D01*
X0328311Y0115385D01*
X0328226Y0115248D01*
X0328138Y0115114D01*
X0328046Y0114982D01*
X0327951Y0114852D01*
X0327853Y0114724D01*
X0327752Y0114599D01*
X0327648Y0114477D01*
X0327541Y0114357D01*
X0327431Y0114240D01*
X0327318Y0114125D01*
X0327202Y0114014D01*
X0327083Y0113905D01*
X0326962Y0113800D01*
X0326838Y0113697D01*
X0326712Y0113597D01*
X0326584Y0113501D01*
X0326453Y0113408D01*
X0326319Y0113318D01*
X0326184Y0113231D01*
X0326046Y0113148D01*
X0325907Y0113068D01*
X0325765Y0112992D01*
X0325622Y0112919D01*
X0325477Y0112850D01*
X0325330Y0112784D01*
X0325182Y0112722D01*
X0325032Y0112664D01*
X0324881Y0112609D01*
X0324728Y0112558D01*
X0324574Y0112511D01*
X0324419Y0112468D01*
X0324263Y0112429D01*
X0324107Y0112393D01*
X0323949Y0112362D01*
X0323791Y0112334D01*
X0323632Y0112310D01*
X0323472Y0112290D01*
X0323312Y0112274D01*
X0323152Y0112262D01*
X0322991Y0112254D01*
X0322830Y0112250D01*
X0322670Y0112250D01*
X0322509Y0112254D01*
X0322348Y0112262D01*
X0322188Y0112274D01*
X0322028Y0112290D01*
X0321868Y0112310D01*
X0321709Y0112334D01*
X0321551Y0112362D01*
X0321393Y0112393D01*
X0321237Y0112429D01*
X0321081Y0112468D01*
X0320926Y0112511D01*
X0320772Y0112558D01*
X0320619Y0112609D01*
X0320468Y0112664D01*
X0320318Y0112722D01*
X0320170Y0112784D01*
X0320023Y0112850D01*
X0319878Y0112919D01*
X0319735Y0112992D01*
X0319593Y0113068D01*
X0319454Y0113148D01*
X0319316Y0113231D01*
X0319181Y0113318D01*
X0319047Y0113408D01*
X0318916Y0113501D01*
X0318788Y0113597D01*
X0318662Y0113697D01*
X0318538Y0113800D01*
X0318417Y0113905D01*
X0318298Y0114014D01*
X0318182Y0114125D01*
X0318069Y0114240D01*
X0317959Y0114357D01*
X0317852Y0114477D01*
X0317748Y0114599D01*
X0317647Y0114724D01*
X0317549Y0114852D01*
X0317454Y0114982D01*
X0317362Y0115114D01*
X0317274Y0115248D01*
X0317189Y0115385D01*
X0317107Y0115523D01*
X0317029Y0115664D01*
X0316955Y0115806D01*
X0316884Y0115950D01*
X0316816Y0116096D01*
X0316753Y0116244D01*
X0316692Y0116393D01*
X0316636Y0116544D01*
X0316583Y0116696D01*
X0316534Y0116849D01*
X0316489Y0117003D01*
X0316448Y0117158D01*
X0316410Y0117315D01*
X0316377Y0117472D01*
X0316347Y0117630D01*
X0316321Y0117789D01*
X0316300Y0117948D01*
X0316282Y0118108D01*
X0316268Y0118268D01*
X0316258Y0118429D01*
X0316252Y0118589D01*
X0316250Y0118750D01*
X0236250Y0118750D02*
X0236252Y0118911D01*
X0236258Y0119071D01*
X0236268Y0119232D01*
X0236282Y0119392D01*
X0236300Y0119552D01*
X0236321Y0119711D01*
X0236347Y0119870D01*
X0236377Y0120028D01*
X0236410Y0120185D01*
X0236448Y0120342D01*
X0236489Y0120497D01*
X0236534Y0120651D01*
X0236583Y0120804D01*
X0236636Y0120956D01*
X0236692Y0121107D01*
X0236753Y0121256D01*
X0236816Y0121404D01*
X0236884Y0121550D01*
X0236955Y0121694D01*
X0237029Y0121836D01*
X0237107Y0121977D01*
X0237189Y0122115D01*
X0237274Y0122252D01*
X0237362Y0122386D01*
X0237454Y0122518D01*
X0237549Y0122648D01*
X0237647Y0122776D01*
X0237748Y0122901D01*
X0237852Y0123023D01*
X0237959Y0123143D01*
X0238069Y0123260D01*
X0238182Y0123375D01*
X0238298Y0123486D01*
X0238417Y0123595D01*
X0238538Y0123700D01*
X0238662Y0123803D01*
X0238788Y0123903D01*
X0238916Y0123999D01*
X0239047Y0124092D01*
X0239181Y0124182D01*
X0239316Y0124269D01*
X0239454Y0124352D01*
X0239593Y0124432D01*
X0239735Y0124508D01*
X0239878Y0124581D01*
X0240023Y0124650D01*
X0240170Y0124716D01*
X0240318Y0124778D01*
X0240468Y0124836D01*
X0240619Y0124891D01*
X0240772Y0124942D01*
X0240926Y0124989D01*
X0241081Y0125032D01*
X0241237Y0125071D01*
X0241393Y0125107D01*
X0241551Y0125138D01*
X0241709Y0125166D01*
X0241868Y0125190D01*
X0242028Y0125210D01*
X0242188Y0125226D01*
X0242348Y0125238D01*
X0242509Y0125246D01*
X0242670Y0125250D01*
X0242830Y0125250D01*
X0242991Y0125246D01*
X0243152Y0125238D01*
X0243312Y0125226D01*
X0243472Y0125210D01*
X0243632Y0125190D01*
X0243791Y0125166D01*
X0243949Y0125138D01*
X0244107Y0125107D01*
X0244263Y0125071D01*
X0244419Y0125032D01*
X0244574Y0124989D01*
X0244728Y0124942D01*
X0244881Y0124891D01*
X0245032Y0124836D01*
X0245182Y0124778D01*
X0245330Y0124716D01*
X0245477Y0124650D01*
X0245622Y0124581D01*
X0245765Y0124508D01*
X0245907Y0124432D01*
X0246046Y0124352D01*
X0246184Y0124269D01*
X0246319Y0124182D01*
X0246453Y0124092D01*
X0246584Y0123999D01*
X0246712Y0123903D01*
X0246838Y0123803D01*
X0246962Y0123700D01*
X0247083Y0123595D01*
X0247202Y0123486D01*
X0247318Y0123375D01*
X0247431Y0123260D01*
X0247541Y0123143D01*
X0247648Y0123023D01*
X0247752Y0122901D01*
X0247853Y0122776D01*
X0247951Y0122648D01*
X0248046Y0122518D01*
X0248138Y0122386D01*
X0248226Y0122252D01*
X0248311Y0122115D01*
X0248393Y0121977D01*
X0248471Y0121836D01*
X0248545Y0121694D01*
X0248616Y0121550D01*
X0248684Y0121404D01*
X0248747Y0121256D01*
X0248808Y0121107D01*
X0248864Y0120956D01*
X0248917Y0120804D01*
X0248966Y0120651D01*
X0249011Y0120497D01*
X0249052Y0120342D01*
X0249090Y0120185D01*
X0249123Y0120028D01*
X0249153Y0119870D01*
X0249179Y0119711D01*
X0249200Y0119552D01*
X0249218Y0119392D01*
X0249232Y0119232D01*
X0249242Y0119071D01*
X0249248Y0118911D01*
X0249250Y0118750D01*
X0249248Y0118589D01*
X0249242Y0118429D01*
X0249232Y0118268D01*
X0249218Y0118108D01*
X0249200Y0117948D01*
X0249179Y0117789D01*
X0249153Y0117630D01*
X0249123Y0117472D01*
X0249090Y0117315D01*
X0249052Y0117158D01*
X0249011Y0117003D01*
X0248966Y0116849D01*
X0248917Y0116696D01*
X0248864Y0116544D01*
X0248808Y0116393D01*
X0248747Y0116244D01*
X0248684Y0116096D01*
X0248616Y0115950D01*
X0248545Y0115806D01*
X0248471Y0115664D01*
X0248393Y0115523D01*
X0248311Y0115385D01*
X0248226Y0115248D01*
X0248138Y0115114D01*
X0248046Y0114982D01*
X0247951Y0114852D01*
X0247853Y0114724D01*
X0247752Y0114599D01*
X0247648Y0114477D01*
X0247541Y0114357D01*
X0247431Y0114240D01*
X0247318Y0114125D01*
X0247202Y0114014D01*
X0247083Y0113905D01*
X0246962Y0113800D01*
X0246838Y0113697D01*
X0246712Y0113597D01*
X0246584Y0113501D01*
X0246453Y0113408D01*
X0246319Y0113318D01*
X0246184Y0113231D01*
X0246046Y0113148D01*
X0245907Y0113068D01*
X0245765Y0112992D01*
X0245622Y0112919D01*
X0245477Y0112850D01*
X0245330Y0112784D01*
X0245182Y0112722D01*
X0245032Y0112664D01*
X0244881Y0112609D01*
X0244728Y0112558D01*
X0244574Y0112511D01*
X0244419Y0112468D01*
X0244263Y0112429D01*
X0244107Y0112393D01*
X0243949Y0112362D01*
X0243791Y0112334D01*
X0243632Y0112310D01*
X0243472Y0112290D01*
X0243312Y0112274D01*
X0243152Y0112262D01*
X0242991Y0112254D01*
X0242830Y0112250D01*
X0242670Y0112250D01*
X0242509Y0112254D01*
X0242348Y0112262D01*
X0242188Y0112274D01*
X0242028Y0112290D01*
X0241868Y0112310D01*
X0241709Y0112334D01*
X0241551Y0112362D01*
X0241393Y0112393D01*
X0241237Y0112429D01*
X0241081Y0112468D01*
X0240926Y0112511D01*
X0240772Y0112558D01*
X0240619Y0112609D01*
X0240468Y0112664D01*
X0240318Y0112722D01*
X0240170Y0112784D01*
X0240023Y0112850D01*
X0239878Y0112919D01*
X0239735Y0112992D01*
X0239593Y0113068D01*
X0239454Y0113148D01*
X0239316Y0113231D01*
X0239181Y0113318D01*
X0239047Y0113408D01*
X0238916Y0113501D01*
X0238788Y0113597D01*
X0238662Y0113697D01*
X0238538Y0113800D01*
X0238417Y0113905D01*
X0238298Y0114014D01*
X0238182Y0114125D01*
X0238069Y0114240D01*
X0237959Y0114357D01*
X0237852Y0114477D01*
X0237748Y0114599D01*
X0237647Y0114724D01*
X0237549Y0114852D01*
X0237454Y0114982D01*
X0237362Y0115114D01*
X0237274Y0115248D01*
X0237189Y0115385D01*
X0237107Y0115523D01*
X0237029Y0115664D01*
X0236955Y0115806D01*
X0236884Y0115950D01*
X0236816Y0116096D01*
X0236753Y0116244D01*
X0236692Y0116393D01*
X0236636Y0116544D01*
X0236583Y0116696D01*
X0236534Y0116849D01*
X0236489Y0117003D01*
X0236448Y0117158D01*
X0236410Y0117315D01*
X0236377Y0117472D01*
X0236347Y0117630D01*
X0236321Y0117789D01*
X0236300Y0117948D01*
X0236282Y0118108D01*
X0236268Y0118268D01*
X0236258Y0118429D01*
X0236252Y0118589D01*
X0236250Y0118750D01*
X0214250Y0118750D02*
X0214252Y0118911D01*
X0214258Y0119071D01*
X0214268Y0119232D01*
X0214282Y0119392D01*
X0214300Y0119552D01*
X0214321Y0119711D01*
X0214347Y0119870D01*
X0214377Y0120028D01*
X0214410Y0120185D01*
X0214448Y0120342D01*
X0214489Y0120497D01*
X0214534Y0120651D01*
X0214583Y0120804D01*
X0214636Y0120956D01*
X0214692Y0121107D01*
X0214753Y0121256D01*
X0214816Y0121404D01*
X0214884Y0121550D01*
X0214955Y0121694D01*
X0215029Y0121836D01*
X0215107Y0121977D01*
X0215189Y0122115D01*
X0215274Y0122252D01*
X0215362Y0122386D01*
X0215454Y0122518D01*
X0215549Y0122648D01*
X0215647Y0122776D01*
X0215748Y0122901D01*
X0215852Y0123023D01*
X0215959Y0123143D01*
X0216069Y0123260D01*
X0216182Y0123375D01*
X0216298Y0123486D01*
X0216417Y0123595D01*
X0216538Y0123700D01*
X0216662Y0123803D01*
X0216788Y0123903D01*
X0216916Y0123999D01*
X0217047Y0124092D01*
X0217181Y0124182D01*
X0217316Y0124269D01*
X0217454Y0124352D01*
X0217593Y0124432D01*
X0217735Y0124508D01*
X0217878Y0124581D01*
X0218023Y0124650D01*
X0218170Y0124716D01*
X0218318Y0124778D01*
X0218468Y0124836D01*
X0218619Y0124891D01*
X0218772Y0124942D01*
X0218926Y0124989D01*
X0219081Y0125032D01*
X0219237Y0125071D01*
X0219393Y0125107D01*
X0219551Y0125138D01*
X0219709Y0125166D01*
X0219868Y0125190D01*
X0220028Y0125210D01*
X0220188Y0125226D01*
X0220348Y0125238D01*
X0220509Y0125246D01*
X0220670Y0125250D01*
X0220830Y0125250D01*
X0220991Y0125246D01*
X0221152Y0125238D01*
X0221312Y0125226D01*
X0221472Y0125210D01*
X0221632Y0125190D01*
X0221791Y0125166D01*
X0221949Y0125138D01*
X0222107Y0125107D01*
X0222263Y0125071D01*
X0222419Y0125032D01*
X0222574Y0124989D01*
X0222728Y0124942D01*
X0222881Y0124891D01*
X0223032Y0124836D01*
X0223182Y0124778D01*
X0223330Y0124716D01*
X0223477Y0124650D01*
X0223622Y0124581D01*
X0223765Y0124508D01*
X0223907Y0124432D01*
X0224046Y0124352D01*
X0224184Y0124269D01*
X0224319Y0124182D01*
X0224453Y0124092D01*
X0224584Y0123999D01*
X0224712Y0123903D01*
X0224838Y0123803D01*
X0224962Y0123700D01*
X0225083Y0123595D01*
X0225202Y0123486D01*
X0225318Y0123375D01*
X0225431Y0123260D01*
X0225541Y0123143D01*
X0225648Y0123023D01*
X0225752Y0122901D01*
X0225853Y0122776D01*
X0225951Y0122648D01*
X0226046Y0122518D01*
X0226138Y0122386D01*
X0226226Y0122252D01*
X0226311Y0122115D01*
X0226393Y0121977D01*
X0226471Y0121836D01*
X0226545Y0121694D01*
X0226616Y0121550D01*
X0226684Y0121404D01*
X0226747Y0121256D01*
X0226808Y0121107D01*
X0226864Y0120956D01*
X0226917Y0120804D01*
X0226966Y0120651D01*
X0227011Y0120497D01*
X0227052Y0120342D01*
X0227090Y0120185D01*
X0227123Y0120028D01*
X0227153Y0119870D01*
X0227179Y0119711D01*
X0227200Y0119552D01*
X0227218Y0119392D01*
X0227232Y0119232D01*
X0227242Y0119071D01*
X0227248Y0118911D01*
X0227250Y0118750D01*
X0227248Y0118589D01*
X0227242Y0118429D01*
X0227232Y0118268D01*
X0227218Y0118108D01*
X0227200Y0117948D01*
X0227179Y0117789D01*
X0227153Y0117630D01*
X0227123Y0117472D01*
X0227090Y0117315D01*
X0227052Y0117158D01*
X0227011Y0117003D01*
X0226966Y0116849D01*
X0226917Y0116696D01*
X0226864Y0116544D01*
X0226808Y0116393D01*
X0226747Y0116244D01*
X0226684Y0116096D01*
X0226616Y0115950D01*
X0226545Y0115806D01*
X0226471Y0115664D01*
X0226393Y0115523D01*
X0226311Y0115385D01*
X0226226Y0115248D01*
X0226138Y0115114D01*
X0226046Y0114982D01*
X0225951Y0114852D01*
X0225853Y0114724D01*
X0225752Y0114599D01*
X0225648Y0114477D01*
X0225541Y0114357D01*
X0225431Y0114240D01*
X0225318Y0114125D01*
X0225202Y0114014D01*
X0225083Y0113905D01*
X0224962Y0113800D01*
X0224838Y0113697D01*
X0224712Y0113597D01*
X0224584Y0113501D01*
X0224453Y0113408D01*
X0224319Y0113318D01*
X0224184Y0113231D01*
X0224046Y0113148D01*
X0223907Y0113068D01*
X0223765Y0112992D01*
X0223622Y0112919D01*
X0223477Y0112850D01*
X0223330Y0112784D01*
X0223182Y0112722D01*
X0223032Y0112664D01*
X0222881Y0112609D01*
X0222728Y0112558D01*
X0222574Y0112511D01*
X0222419Y0112468D01*
X0222263Y0112429D01*
X0222107Y0112393D01*
X0221949Y0112362D01*
X0221791Y0112334D01*
X0221632Y0112310D01*
X0221472Y0112290D01*
X0221312Y0112274D01*
X0221152Y0112262D01*
X0220991Y0112254D01*
X0220830Y0112250D01*
X0220670Y0112250D01*
X0220509Y0112254D01*
X0220348Y0112262D01*
X0220188Y0112274D01*
X0220028Y0112290D01*
X0219868Y0112310D01*
X0219709Y0112334D01*
X0219551Y0112362D01*
X0219393Y0112393D01*
X0219237Y0112429D01*
X0219081Y0112468D01*
X0218926Y0112511D01*
X0218772Y0112558D01*
X0218619Y0112609D01*
X0218468Y0112664D01*
X0218318Y0112722D01*
X0218170Y0112784D01*
X0218023Y0112850D01*
X0217878Y0112919D01*
X0217735Y0112992D01*
X0217593Y0113068D01*
X0217454Y0113148D01*
X0217316Y0113231D01*
X0217181Y0113318D01*
X0217047Y0113408D01*
X0216916Y0113501D01*
X0216788Y0113597D01*
X0216662Y0113697D01*
X0216538Y0113800D01*
X0216417Y0113905D01*
X0216298Y0114014D01*
X0216182Y0114125D01*
X0216069Y0114240D01*
X0215959Y0114357D01*
X0215852Y0114477D01*
X0215748Y0114599D01*
X0215647Y0114724D01*
X0215549Y0114852D01*
X0215454Y0114982D01*
X0215362Y0115114D01*
X0215274Y0115248D01*
X0215189Y0115385D01*
X0215107Y0115523D01*
X0215029Y0115664D01*
X0214955Y0115806D01*
X0214884Y0115950D01*
X0214816Y0116096D01*
X0214753Y0116244D01*
X0214692Y0116393D01*
X0214636Y0116544D01*
X0214583Y0116696D01*
X0214534Y0116849D01*
X0214489Y0117003D01*
X0214448Y0117158D01*
X0214410Y0117315D01*
X0214377Y0117472D01*
X0214347Y0117630D01*
X0214321Y0117789D01*
X0214300Y0117948D01*
X0214282Y0118108D01*
X0214268Y0118268D01*
X0214258Y0118429D01*
X0214252Y0118589D01*
X0214250Y0118750D01*
X0134250Y0118750D02*
X0134252Y0118911D01*
X0134258Y0119071D01*
X0134268Y0119232D01*
X0134282Y0119392D01*
X0134300Y0119552D01*
X0134321Y0119711D01*
X0134347Y0119870D01*
X0134377Y0120028D01*
X0134410Y0120185D01*
X0134448Y0120342D01*
X0134489Y0120497D01*
X0134534Y0120651D01*
X0134583Y0120804D01*
X0134636Y0120956D01*
X0134692Y0121107D01*
X0134753Y0121256D01*
X0134816Y0121404D01*
X0134884Y0121550D01*
X0134955Y0121694D01*
X0135029Y0121836D01*
X0135107Y0121977D01*
X0135189Y0122115D01*
X0135274Y0122252D01*
X0135362Y0122386D01*
X0135454Y0122518D01*
X0135549Y0122648D01*
X0135647Y0122776D01*
X0135748Y0122901D01*
X0135852Y0123023D01*
X0135959Y0123143D01*
X0136069Y0123260D01*
X0136182Y0123375D01*
X0136298Y0123486D01*
X0136417Y0123595D01*
X0136538Y0123700D01*
X0136662Y0123803D01*
X0136788Y0123903D01*
X0136916Y0123999D01*
X0137047Y0124092D01*
X0137181Y0124182D01*
X0137316Y0124269D01*
X0137454Y0124352D01*
X0137593Y0124432D01*
X0137735Y0124508D01*
X0137878Y0124581D01*
X0138023Y0124650D01*
X0138170Y0124716D01*
X0138318Y0124778D01*
X0138468Y0124836D01*
X0138619Y0124891D01*
X0138772Y0124942D01*
X0138926Y0124989D01*
X0139081Y0125032D01*
X0139237Y0125071D01*
X0139393Y0125107D01*
X0139551Y0125138D01*
X0139709Y0125166D01*
X0139868Y0125190D01*
X0140028Y0125210D01*
X0140188Y0125226D01*
X0140348Y0125238D01*
X0140509Y0125246D01*
X0140670Y0125250D01*
X0140830Y0125250D01*
X0140991Y0125246D01*
X0141152Y0125238D01*
X0141312Y0125226D01*
X0141472Y0125210D01*
X0141632Y0125190D01*
X0141791Y0125166D01*
X0141949Y0125138D01*
X0142107Y0125107D01*
X0142263Y0125071D01*
X0142419Y0125032D01*
X0142574Y0124989D01*
X0142728Y0124942D01*
X0142881Y0124891D01*
X0143032Y0124836D01*
X0143182Y0124778D01*
X0143330Y0124716D01*
X0143477Y0124650D01*
X0143622Y0124581D01*
X0143765Y0124508D01*
X0143907Y0124432D01*
X0144046Y0124352D01*
X0144184Y0124269D01*
X0144319Y0124182D01*
X0144453Y0124092D01*
X0144584Y0123999D01*
X0144712Y0123903D01*
X0144838Y0123803D01*
X0144962Y0123700D01*
X0145083Y0123595D01*
X0145202Y0123486D01*
X0145318Y0123375D01*
X0145431Y0123260D01*
X0145541Y0123143D01*
X0145648Y0123023D01*
X0145752Y0122901D01*
X0145853Y0122776D01*
X0145951Y0122648D01*
X0146046Y0122518D01*
X0146138Y0122386D01*
X0146226Y0122252D01*
X0146311Y0122115D01*
X0146393Y0121977D01*
X0146471Y0121836D01*
X0146545Y0121694D01*
X0146616Y0121550D01*
X0146684Y0121404D01*
X0146747Y0121256D01*
X0146808Y0121107D01*
X0146864Y0120956D01*
X0146917Y0120804D01*
X0146966Y0120651D01*
X0147011Y0120497D01*
X0147052Y0120342D01*
X0147090Y0120185D01*
X0147123Y0120028D01*
X0147153Y0119870D01*
X0147179Y0119711D01*
X0147200Y0119552D01*
X0147218Y0119392D01*
X0147232Y0119232D01*
X0147242Y0119071D01*
X0147248Y0118911D01*
X0147250Y0118750D01*
X0147248Y0118589D01*
X0147242Y0118429D01*
X0147232Y0118268D01*
X0147218Y0118108D01*
X0147200Y0117948D01*
X0147179Y0117789D01*
X0147153Y0117630D01*
X0147123Y0117472D01*
X0147090Y0117315D01*
X0147052Y0117158D01*
X0147011Y0117003D01*
X0146966Y0116849D01*
X0146917Y0116696D01*
X0146864Y0116544D01*
X0146808Y0116393D01*
X0146747Y0116244D01*
X0146684Y0116096D01*
X0146616Y0115950D01*
X0146545Y0115806D01*
X0146471Y0115664D01*
X0146393Y0115523D01*
X0146311Y0115385D01*
X0146226Y0115248D01*
X0146138Y0115114D01*
X0146046Y0114982D01*
X0145951Y0114852D01*
X0145853Y0114724D01*
X0145752Y0114599D01*
X0145648Y0114477D01*
X0145541Y0114357D01*
X0145431Y0114240D01*
X0145318Y0114125D01*
X0145202Y0114014D01*
X0145083Y0113905D01*
X0144962Y0113800D01*
X0144838Y0113697D01*
X0144712Y0113597D01*
X0144584Y0113501D01*
X0144453Y0113408D01*
X0144319Y0113318D01*
X0144184Y0113231D01*
X0144046Y0113148D01*
X0143907Y0113068D01*
X0143765Y0112992D01*
X0143622Y0112919D01*
X0143477Y0112850D01*
X0143330Y0112784D01*
X0143182Y0112722D01*
X0143032Y0112664D01*
X0142881Y0112609D01*
X0142728Y0112558D01*
X0142574Y0112511D01*
X0142419Y0112468D01*
X0142263Y0112429D01*
X0142107Y0112393D01*
X0141949Y0112362D01*
X0141791Y0112334D01*
X0141632Y0112310D01*
X0141472Y0112290D01*
X0141312Y0112274D01*
X0141152Y0112262D01*
X0140991Y0112254D01*
X0140830Y0112250D01*
X0140670Y0112250D01*
X0140509Y0112254D01*
X0140348Y0112262D01*
X0140188Y0112274D01*
X0140028Y0112290D01*
X0139868Y0112310D01*
X0139709Y0112334D01*
X0139551Y0112362D01*
X0139393Y0112393D01*
X0139237Y0112429D01*
X0139081Y0112468D01*
X0138926Y0112511D01*
X0138772Y0112558D01*
X0138619Y0112609D01*
X0138468Y0112664D01*
X0138318Y0112722D01*
X0138170Y0112784D01*
X0138023Y0112850D01*
X0137878Y0112919D01*
X0137735Y0112992D01*
X0137593Y0113068D01*
X0137454Y0113148D01*
X0137316Y0113231D01*
X0137181Y0113318D01*
X0137047Y0113408D01*
X0136916Y0113501D01*
X0136788Y0113597D01*
X0136662Y0113697D01*
X0136538Y0113800D01*
X0136417Y0113905D01*
X0136298Y0114014D01*
X0136182Y0114125D01*
X0136069Y0114240D01*
X0135959Y0114357D01*
X0135852Y0114477D01*
X0135748Y0114599D01*
X0135647Y0114724D01*
X0135549Y0114852D01*
X0135454Y0114982D01*
X0135362Y0115114D01*
X0135274Y0115248D01*
X0135189Y0115385D01*
X0135107Y0115523D01*
X0135029Y0115664D01*
X0134955Y0115806D01*
X0134884Y0115950D01*
X0134816Y0116096D01*
X0134753Y0116244D01*
X0134692Y0116393D01*
X0134636Y0116544D01*
X0134583Y0116696D01*
X0134534Y0116849D01*
X0134489Y0117003D01*
X0134448Y0117158D01*
X0134410Y0117315D01*
X0134377Y0117472D01*
X0134347Y0117630D01*
X0134321Y0117789D01*
X0134300Y0117948D01*
X0134282Y0118108D01*
X0134268Y0118268D01*
X0134258Y0118429D01*
X0134252Y0118589D01*
X0134250Y0118750D01*
X0112250Y0118750D02*
X0112252Y0118911D01*
X0112258Y0119071D01*
X0112268Y0119232D01*
X0112282Y0119392D01*
X0112300Y0119552D01*
X0112321Y0119711D01*
X0112347Y0119870D01*
X0112377Y0120028D01*
X0112410Y0120185D01*
X0112448Y0120342D01*
X0112489Y0120497D01*
X0112534Y0120651D01*
X0112583Y0120804D01*
X0112636Y0120956D01*
X0112692Y0121107D01*
X0112753Y0121256D01*
X0112816Y0121404D01*
X0112884Y0121550D01*
X0112955Y0121694D01*
X0113029Y0121836D01*
X0113107Y0121977D01*
X0113189Y0122115D01*
X0113274Y0122252D01*
X0113362Y0122386D01*
X0113454Y0122518D01*
X0113549Y0122648D01*
X0113647Y0122776D01*
X0113748Y0122901D01*
X0113852Y0123023D01*
X0113959Y0123143D01*
X0114069Y0123260D01*
X0114182Y0123375D01*
X0114298Y0123486D01*
X0114417Y0123595D01*
X0114538Y0123700D01*
X0114662Y0123803D01*
X0114788Y0123903D01*
X0114916Y0123999D01*
X0115047Y0124092D01*
X0115181Y0124182D01*
X0115316Y0124269D01*
X0115454Y0124352D01*
X0115593Y0124432D01*
X0115735Y0124508D01*
X0115878Y0124581D01*
X0116023Y0124650D01*
X0116170Y0124716D01*
X0116318Y0124778D01*
X0116468Y0124836D01*
X0116619Y0124891D01*
X0116772Y0124942D01*
X0116926Y0124989D01*
X0117081Y0125032D01*
X0117237Y0125071D01*
X0117393Y0125107D01*
X0117551Y0125138D01*
X0117709Y0125166D01*
X0117868Y0125190D01*
X0118028Y0125210D01*
X0118188Y0125226D01*
X0118348Y0125238D01*
X0118509Y0125246D01*
X0118670Y0125250D01*
X0118830Y0125250D01*
X0118991Y0125246D01*
X0119152Y0125238D01*
X0119312Y0125226D01*
X0119472Y0125210D01*
X0119632Y0125190D01*
X0119791Y0125166D01*
X0119949Y0125138D01*
X0120107Y0125107D01*
X0120263Y0125071D01*
X0120419Y0125032D01*
X0120574Y0124989D01*
X0120728Y0124942D01*
X0120881Y0124891D01*
X0121032Y0124836D01*
X0121182Y0124778D01*
X0121330Y0124716D01*
X0121477Y0124650D01*
X0121622Y0124581D01*
X0121765Y0124508D01*
X0121907Y0124432D01*
X0122046Y0124352D01*
X0122184Y0124269D01*
X0122319Y0124182D01*
X0122453Y0124092D01*
X0122584Y0123999D01*
X0122712Y0123903D01*
X0122838Y0123803D01*
X0122962Y0123700D01*
X0123083Y0123595D01*
X0123202Y0123486D01*
X0123318Y0123375D01*
X0123431Y0123260D01*
X0123541Y0123143D01*
X0123648Y0123023D01*
X0123752Y0122901D01*
X0123853Y0122776D01*
X0123951Y0122648D01*
X0124046Y0122518D01*
X0124138Y0122386D01*
X0124226Y0122252D01*
X0124311Y0122115D01*
X0124393Y0121977D01*
X0124471Y0121836D01*
X0124545Y0121694D01*
X0124616Y0121550D01*
X0124684Y0121404D01*
X0124747Y0121256D01*
X0124808Y0121107D01*
X0124864Y0120956D01*
X0124917Y0120804D01*
X0124966Y0120651D01*
X0125011Y0120497D01*
X0125052Y0120342D01*
X0125090Y0120185D01*
X0125123Y0120028D01*
X0125153Y0119870D01*
X0125179Y0119711D01*
X0125200Y0119552D01*
X0125218Y0119392D01*
X0125232Y0119232D01*
X0125242Y0119071D01*
X0125248Y0118911D01*
X0125250Y0118750D01*
X0125248Y0118589D01*
X0125242Y0118429D01*
X0125232Y0118268D01*
X0125218Y0118108D01*
X0125200Y0117948D01*
X0125179Y0117789D01*
X0125153Y0117630D01*
X0125123Y0117472D01*
X0125090Y0117315D01*
X0125052Y0117158D01*
X0125011Y0117003D01*
X0124966Y0116849D01*
X0124917Y0116696D01*
X0124864Y0116544D01*
X0124808Y0116393D01*
X0124747Y0116244D01*
X0124684Y0116096D01*
X0124616Y0115950D01*
X0124545Y0115806D01*
X0124471Y0115664D01*
X0124393Y0115523D01*
X0124311Y0115385D01*
X0124226Y0115248D01*
X0124138Y0115114D01*
X0124046Y0114982D01*
X0123951Y0114852D01*
X0123853Y0114724D01*
X0123752Y0114599D01*
X0123648Y0114477D01*
X0123541Y0114357D01*
X0123431Y0114240D01*
X0123318Y0114125D01*
X0123202Y0114014D01*
X0123083Y0113905D01*
X0122962Y0113800D01*
X0122838Y0113697D01*
X0122712Y0113597D01*
X0122584Y0113501D01*
X0122453Y0113408D01*
X0122319Y0113318D01*
X0122184Y0113231D01*
X0122046Y0113148D01*
X0121907Y0113068D01*
X0121765Y0112992D01*
X0121622Y0112919D01*
X0121477Y0112850D01*
X0121330Y0112784D01*
X0121182Y0112722D01*
X0121032Y0112664D01*
X0120881Y0112609D01*
X0120728Y0112558D01*
X0120574Y0112511D01*
X0120419Y0112468D01*
X0120263Y0112429D01*
X0120107Y0112393D01*
X0119949Y0112362D01*
X0119791Y0112334D01*
X0119632Y0112310D01*
X0119472Y0112290D01*
X0119312Y0112274D01*
X0119152Y0112262D01*
X0118991Y0112254D01*
X0118830Y0112250D01*
X0118670Y0112250D01*
X0118509Y0112254D01*
X0118348Y0112262D01*
X0118188Y0112274D01*
X0118028Y0112290D01*
X0117868Y0112310D01*
X0117709Y0112334D01*
X0117551Y0112362D01*
X0117393Y0112393D01*
X0117237Y0112429D01*
X0117081Y0112468D01*
X0116926Y0112511D01*
X0116772Y0112558D01*
X0116619Y0112609D01*
X0116468Y0112664D01*
X0116318Y0112722D01*
X0116170Y0112784D01*
X0116023Y0112850D01*
X0115878Y0112919D01*
X0115735Y0112992D01*
X0115593Y0113068D01*
X0115454Y0113148D01*
X0115316Y0113231D01*
X0115181Y0113318D01*
X0115047Y0113408D01*
X0114916Y0113501D01*
X0114788Y0113597D01*
X0114662Y0113697D01*
X0114538Y0113800D01*
X0114417Y0113905D01*
X0114298Y0114014D01*
X0114182Y0114125D01*
X0114069Y0114240D01*
X0113959Y0114357D01*
X0113852Y0114477D01*
X0113748Y0114599D01*
X0113647Y0114724D01*
X0113549Y0114852D01*
X0113454Y0114982D01*
X0113362Y0115114D01*
X0113274Y0115248D01*
X0113189Y0115385D01*
X0113107Y0115523D01*
X0113029Y0115664D01*
X0112955Y0115806D01*
X0112884Y0115950D01*
X0112816Y0116096D01*
X0112753Y0116244D01*
X0112692Y0116393D01*
X0112636Y0116544D01*
X0112583Y0116696D01*
X0112534Y0116849D01*
X0112489Y0117003D01*
X0112448Y0117158D01*
X0112410Y0117315D01*
X0112377Y0117472D01*
X0112347Y0117630D01*
X0112321Y0117789D01*
X0112300Y0117948D01*
X0112282Y0118108D01*
X0112268Y0118268D01*
X0112258Y0118429D01*
X0112252Y0118589D01*
X0112250Y0118750D01*
X0032250Y0118750D02*
X0032252Y0118911D01*
X0032258Y0119071D01*
X0032268Y0119232D01*
X0032282Y0119392D01*
X0032300Y0119552D01*
X0032321Y0119711D01*
X0032347Y0119870D01*
X0032377Y0120028D01*
X0032410Y0120185D01*
X0032448Y0120342D01*
X0032489Y0120497D01*
X0032534Y0120651D01*
X0032583Y0120804D01*
X0032636Y0120956D01*
X0032692Y0121107D01*
X0032753Y0121256D01*
X0032816Y0121404D01*
X0032884Y0121550D01*
X0032955Y0121694D01*
X0033029Y0121836D01*
X0033107Y0121977D01*
X0033189Y0122115D01*
X0033274Y0122252D01*
X0033362Y0122386D01*
X0033454Y0122518D01*
X0033549Y0122648D01*
X0033647Y0122776D01*
X0033748Y0122901D01*
X0033852Y0123023D01*
X0033959Y0123143D01*
X0034069Y0123260D01*
X0034182Y0123375D01*
X0034298Y0123486D01*
X0034417Y0123595D01*
X0034538Y0123700D01*
X0034662Y0123803D01*
X0034788Y0123903D01*
X0034916Y0123999D01*
X0035047Y0124092D01*
X0035181Y0124182D01*
X0035316Y0124269D01*
X0035454Y0124352D01*
X0035593Y0124432D01*
X0035735Y0124508D01*
X0035878Y0124581D01*
X0036023Y0124650D01*
X0036170Y0124716D01*
X0036318Y0124778D01*
X0036468Y0124836D01*
X0036619Y0124891D01*
X0036772Y0124942D01*
X0036926Y0124989D01*
X0037081Y0125032D01*
X0037237Y0125071D01*
X0037393Y0125107D01*
X0037551Y0125138D01*
X0037709Y0125166D01*
X0037868Y0125190D01*
X0038028Y0125210D01*
X0038188Y0125226D01*
X0038348Y0125238D01*
X0038509Y0125246D01*
X0038670Y0125250D01*
X0038830Y0125250D01*
X0038991Y0125246D01*
X0039152Y0125238D01*
X0039312Y0125226D01*
X0039472Y0125210D01*
X0039632Y0125190D01*
X0039791Y0125166D01*
X0039949Y0125138D01*
X0040107Y0125107D01*
X0040263Y0125071D01*
X0040419Y0125032D01*
X0040574Y0124989D01*
X0040728Y0124942D01*
X0040881Y0124891D01*
X0041032Y0124836D01*
X0041182Y0124778D01*
X0041330Y0124716D01*
X0041477Y0124650D01*
X0041622Y0124581D01*
X0041765Y0124508D01*
X0041907Y0124432D01*
X0042046Y0124352D01*
X0042184Y0124269D01*
X0042319Y0124182D01*
X0042453Y0124092D01*
X0042584Y0123999D01*
X0042712Y0123903D01*
X0042838Y0123803D01*
X0042962Y0123700D01*
X0043083Y0123595D01*
X0043202Y0123486D01*
X0043318Y0123375D01*
X0043431Y0123260D01*
X0043541Y0123143D01*
X0043648Y0123023D01*
X0043752Y0122901D01*
X0043853Y0122776D01*
X0043951Y0122648D01*
X0044046Y0122518D01*
X0044138Y0122386D01*
X0044226Y0122252D01*
X0044311Y0122115D01*
X0044393Y0121977D01*
X0044471Y0121836D01*
X0044545Y0121694D01*
X0044616Y0121550D01*
X0044684Y0121404D01*
X0044747Y0121256D01*
X0044808Y0121107D01*
X0044864Y0120956D01*
X0044917Y0120804D01*
X0044966Y0120651D01*
X0045011Y0120497D01*
X0045052Y0120342D01*
X0045090Y0120185D01*
X0045123Y0120028D01*
X0045153Y0119870D01*
X0045179Y0119711D01*
X0045200Y0119552D01*
X0045218Y0119392D01*
X0045232Y0119232D01*
X0045242Y0119071D01*
X0045248Y0118911D01*
X0045250Y0118750D01*
X0045248Y0118589D01*
X0045242Y0118429D01*
X0045232Y0118268D01*
X0045218Y0118108D01*
X0045200Y0117948D01*
X0045179Y0117789D01*
X0045153Y0117630D01*
X0045123Y0117472D01*
X0045090Y0117315D01*
X0045052Y0117158D01*
X0045011Y0117003D01*
X0044966Y0116849D01*
X0044917Y0116696D01*
X0044864Y0116544D01*
X0044808Y0116393D01*
X0044747Y0116244D01*
X0044684Y0116096D01*
X0044616Y0115950D01*
X0044545Y0115806D01*
X0044471Y0115664D01*
X0044393Y0115523D01*
X0044311Y0115385D01*
X0044226Y0115248D01*
X0044138Y0115114D01*
X0044046Y0114982D01*
X0043951Y0114852D01*
X0043853Y0114724D01*
X0043752Y0114599D01*
X0043648Y0114477D01*
X0043541Y0114357D01*
X0043431Y0114240D01*
X0043318Y0114125D01*
X0043202Y0114014D01*
X0043083Y0113905D01*
X0042962Y0113800D01*
X0042838Y0113697D01*
X0042712Y0113597D01*
X0042584Y0113501D01*
X0042453Y0113408D01*
X0042319Y0113318D01*
X0042184Y0113231D01*
X0042046Y0113148D01*
X0041907Y0113068D01*
X0041765Y0112992D01*
X0041622Y0112919D01*
X0041477Y0112850D01*
X0041330Y0112784D01*
X0041182Y0112722D01*
X0041032Y0112664D01*
X0040881Y0112609D01*
X0040728Y0112558D01*
X0040574Y0112511D01*
X0040419Y0112468D01*
X0040263Y0112429D01*
X0040107Y0112393D01*
X0039949Y0112362D01*
X0039791Y0112334D01*
X0039632Y0112310D01*
X0039472Y0112290D01*
X0039312Y0112274D01*
X0039152Y0112262D01*
X0038991Y0112254D01*
X0038830Y0112250D01*
X0038670Y0112250D01*
X0038509Y0112254D01*
X0038348Y0112262D01*
X0038188Y0112274D01*
X0038028Y0112290D01*
X0037868Y0112310D01*
X0037709Y0112334D01*
X0037551Y0112362D01*
X0037393Y0112393D01*
X0037237Y0112429D01*
X0037081Y0112468D01*
X0036926Y0112511D01*
X0036772Y0112558D01*
X0036619Y0112609D01*
X0036468Y0112664D01*
X0036318Y0112722D01*
X0036170Y0112784D01*
X0036023Y0112850D01*
X0035878Y0112919D01*
X0035735Y0112992D01*
X0035593Y0113068D01*
X0035454Y0113148D01*
X0035316Y0113231D01*
X0035181Y0113318D01*
X0035047Y0113408D01*
X0034916Y0113501D01*
X0034788Y0113597D01*
X0034662Y0113697D01*
X0034538Y0113800D01*
X0034417Y0113905D01*
X0034298Y0114014D01*
X0034182Y0114125D01*
X0034069Y0114240D01*
X0033959Y0114357D01*
X0033852Y0114477D01*
X0033748Y0114599D01*
X0033647Y0114724D01*
X0033549Y0114852D01*
X0033454Y0114982D01*
X0033362Y0115114D01*
X0033274Y0115248D01*
X0033189Y0115385D01*
X0033107Y0115523D01*
X0033029Y0115664D01*
X0032955Y0115806D01*
X0032884Y0115950D01*
X0032816Y0116096D01*
X0032753Y0116244D01*
X0032692Y0116393D01*
X0032636Y0116544D01*
X0032583Y0116696D01*
X0032534Y0116849D01*
X0032489Y0117003D01*
X0032448Y0117158D01*
X0032410Y0117315D01*
X0032377Y0117472D01*
X0032347Y0117630D01*
X0032321Y0117789D01*
X0032300Y0117948D01*
X0032282Y0118108D01*
X0032268Y0118268D01*
X0032258Y0118429D01*
X0032252Y0118589D01*
X0032250Y0118750D01*
M02*
